<svg xmlns="http://www.w3.org/2000/svg" version="1.1" viewBox="-6.3339996337890625 -6.3339996337890625 183.34799194335938 167.62899780273438"><polygon points="123.55999755859375,4.519999980926514 121.64199829101562,4.886000156402588 83.48500061035156,17.016000747680664 81.08000183105469,18.079999923706055" fill="none" stroke="yellow" stroke-width="2" /><polygon points="55.63999938964844,100.04000091552734 54.554481506347656,100.65898132324219 52.252498626708984,101.52149963378906 14.239999771118164,111.44100189208984" fill="none" stroke="yellow" stroke-width="2" /><path d="M 41.720001220703125,12.439999580383299 C 41.88253768489887,14.041926167384712 42.62418200619614,15.482474092902212 43.405524824039944,16.896867276115845 C 44.168609536494905,18.32264776568899 44.92306014554897,19.75290645196185 45.67839683829938,21.18266492139914 C 46.444320202420705,22.606219265642817 47.22951531468115,24.020903895342027 47.9600742682787,25.4461380740399 C 48.32410749450193,27.158488559434065 49.56745029114664,27.98422169006209 50.25192708712512,29.426358210794906 C 50.948778358965356,30.876501905102216 51.659418576633115,32.329045078497195 52.39432560522285,33.7695456485557 C 53.14818604814837,35.20008045549679 53.91502969233654,36.623694593891535 54.68917055176297,38.04335761076145 C 55.46494757114862,39.46212786861184 56.23667261447823,40.883104999546035 56.99858755669916,42.309362853957396 C 57.74481958484526,43.743889762882205 58.46919238959746,45.18965123106842 59.16613514395148,46.64870378617848 C 59.84289118392467,48.11153649406937 60.50342533270895,49.57095941206366 61.71582357603069,50.5449998282065 C 62.31989846968348,52.06605712192418 63.00738807463173,53.530368415237795 63.728607882731154,54.97734466672351 C 64.47333965271045,56.41262380784414 65.23535468157448,57.83883198081518 66.00803434659355,59.259290706606386 C 66.78471876876635,60.6775643994185 67.55879150058671,62.09726428550852 68.32357922735646,63.52198342617337 C 69.07231683416917,64.95519989472612 69.79783362627676,66.40040417588645 70.49296741239412,67.86061243590149 C 71.1664609643468,69.32440045251627 71.86757002277506,70.74444570039869 73.00112375481095,71.79105410621952 C 73.64329449417261,73.28934847091841 74.34228718290782,74.74892623009589 75.06869989570274,76.19340206832791 C 75.81331579564221,77.62873850719092 76.57168856468677,79.05688675304782 77.33920286499068,80.48014336006707 C 78.11113609020467,81.90100847388312 78.88279407236143,83.32202303899633 79.6494321876083,84.74575151128411 C 80.40627883504087,86.17470694788018 81.14853538133127,87.61126735118012 81.8713590519737,89.05763545164352 C 82.5655727836625,90.51945369497366 83.21012161867934,92.01222016429146 84.30978430502037,93.09546071102835 C 85.0541802215126,94.40379849774324 85.62166123832094,95.92428597006163 86.32980309056448,97.37934100091532 C 87.11398044461656,98.79308960336368 87.9105679408423,100.20033856938149 88.67217347190821,101.6267388203254 C 89.41593516305905,103.06254240577208 90.16871292611987,104.49365046499716 90.9270518470999,105.92181579730469 C 91.68933592601569,107.34788627947248 92.453697944766,108.77287066785247 93.22110822110905,110.19584689355858 C 93.98332104395325,111.62219615546591 94.63694787973311,113.1215657686741 94.98436574668648,114.76008763103606 C 96.36749629821695,115.50188442640057 96.99655324288692,116.93273060219346 97.62362483755054,118.41643507306638 C 98.3123525952487,119.8811417943042 99.06282838767419,121.3133637719309 99.84627616665688,122.72787412467711 C 100.6399336947833,124.13672553227217 101.42121349303007,125.55245551143086 102.17726319078936,126.98183470144777 C 102.93116185515134,128.41234986458417 103.68776043395418,129.84143922673235 104.44660082936656,131.26933978437359 C 105.20724162504462,132.69628207926792 105.96928985506192,134.12247325724496 106.73235669197375,135.54811971672706 C 107.49604713148678,136.97343223271383 108.25997566075607,138.3986171577186 109.02374881043366,139.82388535364038 C 109.786946366775,141.24946180930561 110.54934247902354,142.67546707648273 111.3066269452851,144.1041914016085 C 112.0603556410672,145.53480599355254 112.8204766881782,146.96201008856127 113.5984881436011,148.37934963474743 C 114.35791390669868,149.8079056890372 114.84527471110523,151.34685709946118 114.91999816894531,152.96099853515625" fill="none" stroke="yellow" stroke-width="2" /><polygon points="157.8800048828125,89.95999908447266 157.5240020751953,88.63800048828125 151.99099731445312,79.04499816894531 150.76699829101562,76.26599884033203 149.5240020751953,75.57599639892578 144.05642700195312,77.33834075927734 118.39800262451172,84.06999969482422 116.0009994506836,85.04100036621094" fill="none" stroke="yellow" stroke-width="2" /><polygon points="136.52000427246094,53.0 134.4835205078125,53.979000091552734 132.35186767578125,54.66400146484375 128.0,55.76100158691406 107.24500274658203,61.41899871826172 105.75712585449219,61.95024871826172 104.36000061035156,62.720001220703125" fill="none" stroke="yellow" stroke-width="2" /><polygon points="125.0,33.439998626708984 123.87275695800781,34.05074691772461 121.48787689208984,34.8641242980957 117.79499816894531,35.70100021362305 96.44300079345703,41.01499938964844 93.79900360107422,42.31999969482422" fill="none" stroke="yellow" stroke-width="2" /><polygon points="92.4800033569336,41.720001220703125 91.34111022949219,42.21479415893555 88.99366760253906,42.96577835083008 64.63500213623047,49.02299880981445 63.098751068115234,49.55125045776367 61.638999938964844,50.2400016784668" fill="none" stroke="yellow" stroke-width="2" /><polygon points="127.04000091552734,108.19999694824219 125.95267486572266,108.71066284179688 123.68162536621094,109.3968734741211 99.9219970703125,114.45099639892578 98.2406234741211,114.94312286376953 96.68000030517578,115.76000213623047" fill="none" stroke="yellow" stroke-width="2" /><path d="M 114.91999816894536,84.55999755859379 C 114.58036068240742,83.52301288519212 114.18071163217385,82.50768981895028 113.73344326143196,81.512405075664 C 113.25089763036657,80.53375673289605 112.74511488172445,79.56691084552958 112.22744043304188,78.60638308475171 C 111.70995925246328,77.64575194878263 111.20043604704763,76.68088083040338 110.69651376463379,75.71306639190236 C 110.19393322296894,74.74455848386627 109.6929423633227,73.77522593017595 109.19276681532057,72.80547280643364 C 108.69288214349963,71.83556976020212 108.19272743763504,70.86580563434677 107.69171701832826,69.89648363647716 C 107.18925743668,68.92791344222596 106.68518274581662,67.9601705858823 106.1766319520722,66.99483039844048 C 105.67379927157752,66.0262297614826 105.13066951258227,65.07990399731071 104.78456903298519,64.0264387958013 C 104.3461256489022,63.05494438374872 103.48090008791667,62.362656123984124 102.9639121992881,61.443814549676 C 102.65505343860623,60.378575750151654 102.21400723751835,59.38409563694652 101.7566867297308,58.39263469658285 C 101.26389891908889,57.41921827454817 100.752874033277,56.45512145303509 100.23236418399067,55.49612916961081 C 99.71233291727452,54.53687337410445 99.20434607137486,53.57119203085577 98.70922827180898,52.598844664836044 C 98.21619682845308,51.6254424057381 97.72020144513576,50.653537551587796 97.22148076044563,49.68305473912862 C 96.71954731006394,48.7141546081667 96.2116711581608,47.74855561028094 95.70218398415467,46.78333746447456 C 95.17986395063514,45.82580697173133 94.65343990985063,44.87020218062758 94.39036410103893,43.74715795040567 C 94.04943905136409,42.713540675743225 93.18291526886831,42.09475223530798 92.40815118317315,41.40737744042784 C 92.14924114067091,40.31245361566547 91.7379589961966,39.30706421088601 91.29641580716039,38.308622611708124 C 90.8162600315349,37.32872519748319 90.30944714924232,36.36249706517697 89.7874292755144,35.40428609567723 C 89.25941085237733,34.44942465270655 88.73487163957351,33.49260704255049 88.22535874900925,32.52775204136731 C 87.73412926819748,31.553418172345275 87.24666970654573,30.577220596391086 86.75151430639816,29.604888927128286 C 86.25188751915493,28.634855008856995 85.74842587390354,27.666802526370244 85.24241960064444,26.70008117169225 C 84.73499922027318,25.734092308169352 84.22729697653627,24.768280317846834 83.72054007113954,23.80188000378879 C 83.21563128398837,22.834800536152283 82.71447330371359,21.864900192342894 82.21606856928632,20.896112444891777 C 81.73691535484991,19.931318659396997 81.41210447290038,18.809241086617416 80.88995862451108,17.935314164788167 C 79.78574609542567,17.892103949655834 78.74548560574753,18.344841694080905 77.8078694019881,18.850451335431387 C 76.76623495092974,19.182955517972488 75.71760200969624,19.501388401102588 74.68018034354499,19.836104932587034 C 73.64011544373794,20.166929208557118 72.600681317857,20.49863586596493 71.56105868106697,20.830022344263597 C 70.52144462404786,21.161369240801083 69.48178627146821,21.492593285582196 68.44209169676773,21.823699730850326 C 67.40235355861498,22.154670273593947 66.36256897360573,22.48549465401861 65.32273455414372,22.81616241281997 C 64.28284450057902,23.146655159254394 63.24289738844291,23.476968321267147 62.20288717661259,23.807082754758405 C 61.16281147060365,24.136990782874197 60.12266561331252,24.466677567083796 59.082445589275096,24.796130252982266 C 58.04214735495647,25.125336030777405 57.001771690324944,25.454296181884693 55.9612882581201,25.78291982046246 C 54.92082453242414,26.111583788661758 53.87976401016213,26.438459453302492 52.84093947872332,26.77193471259275 C 51.8267234584784,27.174814016243587 50.840050690465446,27.643357615386307 49.880001068115234,28.160999298095703" fill="none" stroke="yellow" stroke-width="2" /><polygon points="103.04000091552734,62.119998931884766 100.98796844482422,63.05945587158203 98.86566162109375,63.77556610107422 93.43547821044922,65.1689453125 75.31600189208984,70.14700317382812 72.91999816894531,71.36000061035156" fill="none" stroke="yellow" stroke-width="2" /><path d="M 137.8399963378906,127.87999725341794 C 137.46122229263432,127.15693172662124 137.08356171489856,126.43328413770206 136.70684341705498,125.70914548338621 C 136.33089864956784,124.98460499095572 135.95556420187938,124.25974815540584 135.58068237228676,123.53465713842523 C 135.20607697364525,122.80942326985068 134.83157274725463,122.08413715933688 134.4570117853654,121.3588803495135 C 134.08223105521515,120.63373704406048 133.70705707118813,119.9087972098911 133.3313246375001,119.18414652112035 C 132.954876263366,118.45986732968107 132.57752538240948,117.73605938394688 132.1991442793723,117.01278486405249 C 131.81950794049467,116.29017531987189 131.4384423341664,115.56832463870163 131.05622674396173,114.84701067211105 C 130.6710147506783,114.12752236370511 130.2859790543256,113.40757379175622 129.90030656838286,112.6877238913491 C 129.4887862353869,111.98646379105406 129.11653929029467,111.26253128632432 128.89338437539718,110.4451080197034 C 128.75547516404148,109.5864779903006 128.40149355492628,108.90723540081768 127.67109671630332,108.51936575563013 C 127.04277785335287,108.04696011677528 126.81587387663222,107.25427043384735 126.58200877574568,106.45352490164007 C 126.25579574067451,105.71246407388604 125.92907809379818,104.96373407702708 125.58312877423062,104.22358637077862 C 125.21687690248152,103.49447009070192 124.83999658546375,102.77035859541215 124.45433637308095,102.05090016007458 C 124.06320550156505,101.33446482300002 123.6703861387269,100.61892967682401 123.2790045976834,99.90260100781374 C 122.89327526445737,99.18322628240256 122.51562340909734,98.45956593858955 122.14464920349101,97.73246751220846 C 121.77577322516484,97.00430161466667 121.40634399299753,96.27641769206939 121.03674043448801,95.54862207010267 C 120.66634234383778,94.82122991498316 120.29455318549103,94.09454880116299 119.92092072851783,93.368813375705 C 119.54489310316744,92.64430932862896 119.16603710992955,91.9213022122285 118.78374215044235,91.2000822309532 C 118.39740250109244,90.48095338318645 118.0075612208361,89.76409458532213 117.61116618706238,89.05009660334727 C 117.20893452140653,88.33914076620655 116.82433918304058,87.62522960644569 116.52308508930241,86.8637955126793 C 116.35609546692186,86.01681329256964 116.09656382252504,85.25632281090869 115.44977238281062,84.82564807547324 C 114.57624785254762,84.77197299004018 113.78838789233379,85.02763431275972 113.04874465464637,85.35739239919091 C 112.27325261877363,85.61859476367383 111.4951102843556,85.8671554877147 110.71467583211103,86.10406385506815 C 109.92834187376062,86.32396150707375 109.13936850360558,86.53334950091167 108.348282286539,86.73435898943318 C 107.55560349494442,86.92926496728393 106.76217892511372,87.12101661736887 105.96864114701884,87.31228946967535 C 105.17557193286973,87.50553229599926 104.38372934042263,87.70372673558353 103.59397954522862,87.91009643329198 C 102.80609512582218,88.12349596244472 102.01894050247991,88.33954994552094 101.23131683214038,88.55389210608858 C 100.44340850631797,88.76718641834235 99.6552693781246,88.97962398254381 98.86686360638926,89.1910711574679 C 98.07822118506532,89.40163355909642 97.28934836359166,89.61133110319054 96.50025453254955,89.82019551765656 C 95.71095244127318,90.0282714589246 94.92145215672863,90.23559414497502 94.13175972679939,90.4421839327517 C 93.3418930809911,90.64810556901897 92.55185066335852,90.85335455164807 91.76165467761113,91.05800888750979 C 90.97133849885023,91.26218766742652 90.18071556240719,91.46524103116596 89.39041836101863,91.6693806130273 C 88.59945514951998,91.87114485940204 87.8071947115049,92.06833198275552 87.02720661074859,92.30770998337505 C 86.26596112729703,92.60442536450932 85.52330791888701,92.94635664734506 84.79900360107422,93.32099914550781" fill="none" stroke="yellow" stroke-width="2" /><path d="M 71.5999984741211,70.76000213623048 C 70.82514905078122,71.12153857232663 70.03485438545492,71.44758751920259 69.23226353127811,71.74230540994895 C 68.42032632333559,72.01005532949702 67.60145369179101,72.25572880293481 66.77765943077114,72.4843544471426 C 65.95067210288444,72.70110410053852 65.12198571980535,72.91124143501045 64.29284830801664,73.11962361431323 C 63.46479238511497,73.33222410410605 62.63920731766208,73.55425169929359 61.8157588422153,73.78407777918014 C 60.99277821290132,74.01555252651657 60.1690518378886,74.24436952129939 59.344990841841444,74.47197572756374 C 58.52062280362265,74.69846539916257 57.695960241367885,74.92388207155615 56.87107589974587,75.14848508414822 C 56.0460153175318,75.37244001701139 55.220825990504,75.59591924823576 54.39555481662667,75.81909854090502 C 53.57025810869239,76.0421802062494 52.744985874974155,76.26534623403987 51.91973062138582,76.48862115273336 C 51.09473635924957,76.7127258631017 50.269720315054165,76.93692104511554 49.44459149400665,77.16099681355159 C 48.62230749468152,77.39318488389014 47.792705019141245,77.60537925246771 46.97365991767412,77.84711880351668 C 46.20984599298369,78.24228664806591 45.454965243465935,78.66333429741066 44.6411282255022,78.92303294060929 C 43.7389288731161,78.8515033904913 43.00064411363333,78.40585879413311 42.70065691306596,77.63316987946764 C 42.517260420274816,76.77382475538172 42.170313246865874,75.99363328852289 41.77505026041338,75.23585655267323 C 41.36132337929265,74.48764633312346 40.920392914718875,73.75517528700762 40.4734024358028,73.02634241755503 C 40.03229757203088,72.29405595789761 39.59861719465348,71.55729602662525 39.16716152042018,70.81923654866607 C 38.73752845831504,70.08012142547774 38.309693106751084,69.33995921495276 37.88300427949003,68.59913747619865 C 37.45710267029723,67.8578624750605 37.03155448516969,67.11638494398053 36.60590548280444,66.37496352913399 C 36.179772008000405,65.63382497832224 35.752664663820404,64.89324196637617 35.32409742602326,64.15348940487372 C 34.89435243862776,63.414520335545376 34.460300807487414,62.67772750777254 34.027761485407346,61.9407434411714 C 33.59069080471852,61.20619857857907 33.124574917892495,60.48450217259832 32.80785092775528,59.70041318654358 C 32.61740835619159,58.860004096202736 32.32001100577304,58.05516122795291 31.71292692245083,57.391253924558754 C 30.894971063251667,57.07064394152498 30.09201642703353,57.2820265575635 29.31184574835958,57.67138551766552 C 28.507682627309556,57.952520524369156 27.698347167331274,58.22813985953812 26.882714810467842,58.485376211480784 C 26.061182594079373,58.72149319774051 25.235753495493878,58.94424265077393 24.40710155624549,59.1545287355316 C 23.576160952778086,59.3555702745677 22.743720488802232,59.55032062832119 21.91047038642994,59.74156762587253 C 21.07709191600234,59.93225334413274 20.24426293652552,60.12531956842711 19.412586609388427,60.3233329268018 C 18.583061116697575,60.53011775436333 17.75620057745017,60.74735572766386 16.93078161352403,60.96999437427664 C 16.104893314729946,61.190864427867744 15.278056682145948,61.408180572091986 14.450662365581108,61.62335181718729 C 13.6227034019158,61.83634180503941 12.794266446228033,62.04746583547274 11.965436443572731,62.25704069823247 C 11.136282712733543,62.465330898996896 10.306881988655112,62.67263467035337 9.477308426229426,62.87925149242103 C 8.64762618989204,63.08541163943621 7.817923447361052,63.291524763763974 6.988264632002192,63.49782159066527 C 6.158637086612551,63.7039583621642 5.329505914703981,63.913187892462176 4.499988597637388,64.11857622289583 C 3.671027744574092,64.32697956277809 2.8462642660517905,64.56562601844311 2.0,64.63999938964844" fill="none" stroke="yellow" stroke-width="2" /><polygon points="48.560001373291016,27.799999237060547 46.55178451538086,28.705875396728516 43.45355224609375,29.817689895629883 23.006000518798828,36.22200012207031 20.358999252319336,37.52000045776367" fill="none" stroke="yellow" stroke-width="2" /><polygon points="60.31999969482422,49.63999938964844 58.238807678222656,50.547428131103516 56.08482360839844,51.21025085449219 35.00400161743164,56.37900161743164 33.52000045776367,56.91362380981445 32.119998931884766,57.68000030517578" fill="none" stroke="yellow" stroke-width="2" /><polygon points="95.12000274658203,115.16000366210938 93.99088287353516,115.66887664794922 91.63987731933594,116.34612274169922 88.03600311279297,117.06199645996094 68.23999786376953,121.4000015258789" fill="none" stroke="yellow" stroke-width="2" /><polygon points="83.36000061035156,92.83999633789062 82.17561340332031,93.4124526977539 79.71050262451172,94.26074981689453 59.48099899291992,99.56500244140625 57.08000183105469,100.63999938964844" fill="none" stroke="yellow" stroke-width="2" /><polygon points="42.79999923706055,78.44000244140625 41.68717575073242,79.11074829101562 40.51540756225586,79.61563110351562 39.302249908447266,80.00212860107422 35.59000015258789,80.9260025024414 21.440000534057617,84.802001953125 19.038999557495117,85.03900146484375" fill="none" stroke="yellow" stroke-width="2" /><polygon points="152.1199951171875,103.33999633789062 150.96737670898438,103.44316864013672 148.69564819335938,103.82670593261719 131.0,107.72000122070312 128.36000061035156,108.80000305175781" fill="none" stroke="yellow" stroke-width="2" /><path d="M 117.08000183105469,16.399999618530273 C 117.04914799142094,17.091585731686976 117.11931503050502,17.77746716986197 117.27887036808286,18.448859597516098 C 117.51617775390048,19.096983510219328 117.81624107450165,19.71748221922486 118.15449970925687,20.318591579153434 C 118.50756314181723,20.910424853952087 118.86107157571442,21.501793493294983 119.21042081234543,22.095818724604484 C 119.55843473003385,22.690599656607933 119.90530891422637,23.286016117885943 120.25073470222158,23.882290303409476 C 120.59507932798955,24.479188278773876 120.93854080402403,25.076594719516027 121.28127708328417,25.674420296036022 C 121.62362669477925,26.27244678540839 121.96548207352123,26.87078394479944 122.30685167131942,27.469456415792276 C 122.64986251695444,28.066934114854952 122.99214324965664,28.664989200019143 123.32841106866998,29.267530814863367 C 123.6822274726609,29.857292915398432 124.03996312007396,30.444308923149134 124.28812975459181,31.111528865223875 C 124.43983490129533,31.843635146787452 124.61123100504018,32.54576986157884 124.92081872911899,33.12126251494197 C 125.47629773826505,33.482396660985096 126.17517043488859,33.71570979216089 126.7240117441142,34.066018650077844 C 126.93437315071182,34.69473888048022 127.06334921558647,35.40826549390135 127.31394546662361,36.04842799059255 C 127.60908284581461,36.66735884774659 127.91487983070277,37.28617787134299 128.24581080295718,37.89096035571962 C 128.59482224895496,38.484946870621116 128.95123402734842,39.07472004926835 129.31079113044416,39.662652511438274 C 129.66701512679128,40.25251985786666 130.0121726374757,40.84892586152096 130.34691872698087,41.45130804932356 C 130.6763763314028,42.05655720266438 131.00857161769335,42.660276481986585 131.34704633447268,43.260531142476054 C 131.68912097042715,43.85874505034507 132.0334683701514,44.455636985413975 132.37989544111153,45.05132913221242 C 132.72779668968028,45.64615797265396 133.0763071969227,46.24062233885117 133.42428950560802,46.83543475303343 C 133.77154154401393,47.43066471627346 134.11889558908484,48.0256631355226 134.46205445716674,48.62328983733602 C 134.79644897425496,49.22658349267237 135.14068912730252,49.82267683636038 135.49350974267654,50.41230733357846 C 135.76632278481017,51.05597902426322 135.94725882929322,51.75835438059326 136.1711598527428,52.418447079524725 C 136.58518463502898,52.9264143314306 137.2190578978003,53.260179278020644 137.8321020019858,53.5997539216271 C 138.16452565520618,54.14020498283998 138.28610482718307,54.84378111284298 138.49531911191295,55.50848205733648 C 138.79373200730575,56.12630354085426 139.10710624824102,56.74011351962842 139.4404615566875,57.34368055865921 C 139.79465245148734,57.93476216134471 140.15634002929144,58.52131248101184 140.51580420114917,59.109228443641086 C 140.8667890112825,59.702267360415725 141.20801492704828,60.30095676530637 141.54288164166715,60.903225048477665 C 141.87932384970298,61.50461147714049 142.21867315942907,62.104365251102536 142.55898595947468,62.70357072651466 C 142.90033896312667,63.30218262650635 143.24286937603839,63.900122928955916 143.5862883834874,64.49755325424137 C 143.93041958456448,65.09457320590411 144.27514121318166,65.6912525042192 144.6202945074553,66.28768238658489 C 144.96571881211236,66.88395517268573 145.31126041420785,67.48015946864042 145.65677909186655,68.07637839197494 C 146.00211277463066,68.67270509693464 146.34704251167585,69.26925810004009 146.6915433784071,69.86606651015242 C 147.0356116062546,70.46314951530515 147.37824278187304,71.06098568696943 147.71978171492017,71.65943311367681 C 148.06352850127544,72.25699090679143 148.40192790257726,72.857141871346 148.71802021234478,73.46768664553714 C 148.994560032369,74.09655703598084 149.21430196444098,74.7516848492931 149.36000061035156,75.44100189208984" fill="none" stroke="yellow" stroke-width="2" /><path d="M 44.479999542236335,79.04000091552736 C 44.53429225085152,79.40777681513174 44.612541665174504,79.768905558648 44.712500363550035,80.12357552495637 C 44.83192092432279,80.47197509293693 44.96855592583745,80.81429264146983 45.12015794643873,81.15071654943526 C 45.28447956447131,81.48143519571329 45.459273293632634,81.8066386310868 45.64227802523001,82.12686920759468 C 45.83120229779553,82.44345425852916 46.023750549212984,82.75782716784627 46.21763461896399,83.07141638776119 C 46.41104766572609,83.38532966384021 46.6029511219589,83.70016283497303 46.79237517631649,84.01646592727306 C 46.978392147787794,84.33476465043297 47.16131011599951,84.65487146855591 47.34284226147837,84.97578786181387 C 47.52473031902845,85.29649908344068 47.707624457377875,85.61662622443781 47.89108531856308,85.93642502563209 C 48.07464328601389,86.25616885458612 48.25813959925105,86.5759500248954 48.44168789891562,86.89570219377046 C 48.625405150813265,87.21535708333408 48.809320274464774,87.5348977211323 48.99339449001726,87.85434658379214 C 49.177589309160645,88.1737259790599 49.36189128455704,88.49304363546048 49.54630384582954,88.81229745550439 C 49.73083004898857,89.13148556432814 49.915465837392645,89.45061028082752 50.10020295922271,89.76967639745727 C 50.28503336799223,90.08868857199354 50.46995127670505,90.40765001147177 50.654952062063614,90.72656317575691 C 50.84003066447416,91.0454308555492 51.02517872577757,91.36425833451423 51.21038640824481,91.68305201453617 C 51.39564598445618,92.00181673214449 51.580963105776135,92.3205473993287 51.766348634388855,92.6392350626307 C 51.95180377713728,92.957877890681 52.13727736021455,93.27651269001996 52.32270055112365,93.59518929289248 C 52.508047227529765,93.91392607935947 52.693490271754925,94.23259488041504 52.87926046361497,94.5510248907461 C 53.065402135393114,94.86918253645656 53.25121218884296,95.1875843767143 53.43580034714511,95.50688474018841 C 53.619082419529406,95.8271447687357 53.803756517698794,96.1463781489374 53.9931187412413,96.4621584506958 C 54.18793589245612,96.77383110970572 54.381445567949015,97.08601604721603 54.565490676185526,97.40431021482229 C 54.7319141256311,97.73431056411991 54.87255882475125,98.08161404670447 54.98289709161724,98.44916252017401 C 55.079773982118425,98.82426261930732 55.187831643291915,99.18851701814222 55.33172361434651,99.52352005677528 C 55.536103434490975,99.81086607530315 55.81945247713847,100.03671996024127 56.15860291967496,100.21808821676153 C 56.51316628576471,100.38472940495554 56.84269946519493,100.56644254181106 57.10675934775284,100.79302664431583 C 57.27118311273829,101.08993711998228 57.35570695964494,101.4453514300822 57.40749931686867,101.82847420204735 C 57.473895527238504,102.2083914145805 57.58572399430699,102.5645559102024 57.73360703487224,102.90167118626763 C 57.902161764215286,103.2282121907484 58.07662119416262,103.55230372796268 58.251652245305884,103.87670732602292 C 58.42929735880318,104.19999145214342 58.611795360068186,104.52061292702697 58.800445961642296,104.83760216703784 C 58.99240908834232,105.1525181070484 59.18370430218615,105.46761619794455 59.370390651473436,105.78513124030204 C 59.55159729783561,106.10569220452462 59.73166443801271,106.4272024165531 59.915437914801814,106.74730072294032 C 60.10738581038129,107.06379830123791 60.30687818773825,107.37683199952907 60.50962616947812,107.68820784161065 C 60.71126089571707,107.99976833857235 60.90741350657123,108.31335600150373 61.09371514215677,108.63081334149445 C 61.26579694258983,108.95398286963409 61.419290047986564,109.2847070970123 61.549825598463116,109.62482853471869 C 61.65303473413564,109.97618969384288 61.72454859512028,110.34063308547448 61.7599983215332,110.72000122070312" fill="none" stroke="yellow" stroke-width="2" /><path d="M 12.680000305175783,24.920000076293945 C 12.850709377029709,25.25278214904261 13.023685972710489,25.584379380682265 13.19878789307024,25.91485557962197 C 13.375872938961054,26.244274554270763 13.554798911235055,26.57270011303771 13.735423610744341,26.900196064331833 C 13.917605218293359,27.22682673802259 14.101204998629246,27.55266069649458 14.286085714573458,27.877768558144066 C 14.472109937763834,28.202221455824095 14.659137826349234,28.52609653235243 14.847027944786813,28.84947489908807 C 15.035639517168192,29.172437122306828 15.224844701517753,29.495052196508336 15.414527163848572,29.817378820184764 C 15.604569782223065,30.13947662432843 15.794816733186853,30.461447268994235 15.985065890470992,30.783442698154904 C 16.175114192476716,31.10561589870633 16.364878977287738,31.427990934018904 16.55447209932625,31.750383580102014 C 16.744021320399135,32.072592567420386 16.933296838366555,32.394797103257986 17.121280932164503,32.718014804052906 C 17.30685137136164,33.0433744901566 17.489894609291575,33.37092745101234 17.67337239576833,33.69743977695092 C 17.860830470301032,34.019053708719696 18.05335011374065,34.33424538702915 18.241486381539126,34.65145953412344 C 18.412984499031946,34.98180184705488 18.555589664039452,35.336378048933234 18.658598675084935,35.724823429194984 C 18.738479818782228,36.13102317870607 18.834845444650718,36.5169291330759 18.98804751347372,36.84379220704835 C 19.238387689578975,37.07291318036365 19.593266194344725,37.198212036530734 19.97046319789072,37.302460020635344 C 20.272968680776962,37.48308887263248 20.452677059932114,37.788623206054 20.56198264716365,38.167082211420656 C 20.66554569984839,38.5542175534063 20.805329939739934,38.90825156532234 20.970816493123817,39.23936688982312 C 21.144108847198808,39.565050422611584 21.313216889404043,39.89695212978976 21.480483362198886,40.23255770441224 C 21.650377983645807,40.567250914242756 21.82577498666158,40.89800282606079 22.005677194949886,41.225636052396766 C 22.188513259329298,41.551544466755 22.373153996238415,41.87669126800438 22.559508652048255,42.20102821176191 C 22.747634807135956,42.52436261083669 22.93746807212522,42.846628150131615 23.128672896407434,43.16803946299542 C 23.32087738513964,43.48884884958781 23.513739887459277,43.809278938611335 23.706981386532203,44.1294909104122 C 23.900330719342843,44.44963831121447 24.093526007857783,44.769873590442664 24.286323055446324,45.09034710888456 C 24.478478672189496,45.41120948483503 24.669669071250127,45.73265192391332 24.85943091500057,46.05493590729438 C 25.04729226377436,46.378326837711185 25.233103858498676,46.702902598969516 25.41721961862777,47.02844866343334 C 25.600038774010237,47.354724383063626 25.78203727870955,47.68145420106686 25.963798153221056,48.00831384648836 C 26.145911950912947,48.33497566243582 26.328781800853783,48.66121582940897 26.51232879037769,48.98707759016492 C 26.696397576246262,49.312646531763754 26.880856191319367,49.637995023243704 27.065689362279166,49.96312944908575 C 27.250918156310814,50.288035645022426 27.436565928597727,50.61269865406522 27.62267931740996,50.937095478629224 C 27.809318599030554,51.26119841136918 27.996538133008784,51.584982496805665 28.184237238561025,51.908494362493634 C 28.372151380662977,52.23185628845561 28.56001174235016,52.55519251949762 28.74796084393185,52.87843597705517 C 28.936929109064504,53.20115310878731 29.1279359481126,53.52286897239059 29.321116467810217,53.84352015315965 C 29.513387479418594,54.16454093170655 29.70093387912858,54.48770619931215 29.87994056313103,54.81479084725735 C 30.046592427616773,55.14756976682299 30.19707436877666,55.48781784928998 30.327571282801543,55.837309985939214 C 30.434268065882264,56.19782106805155 30.513349614209673,56.57112598690788 30.56100082397461,56.95899963378906" fill="none" stroke="yellow" stroke-width="2" /><polygon points="168.67999267578125,71.36000061035156 167.31259155273438,71.34095764160156 165.9821014404297,71.52543640136719 164.67550659179688,71.84024047851562 162.08200073242188,72.56800079345703 153.91200256347656,74.68499755859375 152.25250244140625,75.28937530517578 150.67999267578125,76.04000091552734" fill="none" stroke="yellow" stroke-width="2" /><polygon points="73.5199966430664,2.0 73.53459167480469,3.5180740356445312 73.92874145507812,4.943259239196777 74.5739974975586,6.334000110626221 78.34485626220703,13.420219421386719 79.33894348144531,15.486858367919922 80.23999786376953,17.600000381469727" fill="none" stroke="yellow" stroke-width="2" /><polygon points="151.63999938964844,49.63999938964844 149.7445068359375,49.83250045776367 147.927001953125,50.38800048828125 140.5989990234375,52.39699935913086 137.9600067138672,53.60100173950195" fill="none" stroke="yellow" stroke-width="2" /><polygon points="140.72000122070312,30.31999969482422 139.544677734375,30.3571720123291 138.3964385986328,30.53437042236328 135.0200653076172,31.421411514282227 130.04200744628906,32.611000061035156 128.3471221923828,33.14962387084961 126.80000305175781,34.040000915527344" fill="none" stroke="yellow" stroke-width="2" /><polygon points="19.040000915527344,37.15999984741211 18.01148223876953,37.64811706542969 15.911853790283203,38.5014533996582 12.690354347229004,39.573394775390625 7.2820000648498535,41.24599838256836 5.599999904632568,41.36000061035156" fill="none" stroke="yellow" stroke-width="2" /></svg>