<svg xmlns="http://www.w3.org/2000/svg" version="1.1" viewBox="-990.8293461799622 -99.08178126066923 2199.998688697815 432.3908647224307"><path d="M 41.94200134277344,68.98000335693362 C 41.33078189019423,69.7238759879174 40.72864527922278,70.47511985546429 40.135738744141946,71.23366955599394 C 39.55221838422265,71.9994631390089 38.97823443361216,72.77243038401197 38.41394331091009,73.55250178358173 C 37.85950102605938,74.33960390907805 37.315055102823536,75.13365340140332 36.78075989376513,75.93456830764266 C 36.25676413906286,76.74225917614135 35.743227949696646,77.55664035104623 35.240289249484434,78.37760861857467 C 34.748100128103715,79.20506620902631 34.26680616009935,80.03890818346935 33.79654900099445,80.87902395953705 C 33.337470696472444,81.72530023356707 32.88970900510625,82.57761816801097 32.45339684221024,83.43585373787434 C 32.02867001861503,84.29988132483783 31.6156587108374,85.16956977085766 31.21443808052514,86.04476102843773 C 30.825621531348137,86.92553068418461 30.449942855844373,87.81198271976439 30.08739145651726,88.70388496919902 C 29.737784705997605,89.60094003842049 29.400986128588055,90.50288223949772 29.076849242293736,91.40945177574459 C 28.76524072318774,92.32040364485627 28.466037184771796,93.23550499160089 28.17911356028921,94.15453066168455 C 27.904355295717696,95.07726642145772 27.641651719024875,96.00350630336642 27.39090192412383,96.93305353377754 C 27.15200803356031,97.86571816384694 26.924882249495152,98.80131824281438 26.709443272055474,99.73967836870308 C 26.5056096658057,100.68062767614467 26.313311734346215,101.6240020770091 26.1324883723822,102.56964297869636 C 25.963080419339803,103.51739546142689 25.805033556335523,104.46710861067625 25.658305347238592,105.41863616771026 C 25.52285759342033,106.37183490813104 25.398653374811914,107.32656378081032 25.28566780989869,108.2826852298802 C 25.183879116772278,109.2400634261914 25.09327575969252,110.19856487105531 25.0138464689957,111.15805690803523 C 24.945589705559463,112.11840841662074 24.888505486838923,113.07948874549618 24.842607756117708,114.04116822161788 C 24.807908256160516,115.00331684432616 24.784430521441074,115.96580467269979 24.772200666160472,116.92850113160216 C 24.77125247830995,117.89127479182852 24.781621416643397,118.85399310248503 24.803358065811857,119.81652181216 C 24.836508511591,120.77872507455818 24.88113200233071,121.74046450327322 24.937290665563232,122.70159938495563 C 25.005053510114294,123.6619858512066 25.08449405173387,124.62147698374419 25.17569244284373,125.57992197512307 C 25.27873831255353,126.53716569119035 25.39371983528832,127.49304914602229 25.520735405720146,128.44740807963151 C 25.659890019537485,129.4000726999867 25.81129609703678,130.3508671384621 25.97506527001889,131.29961025172722 C 26.15131725225653,132.24611383066917 26.340182330298212,133.1901814864664 26.541789355242432,134.13161035683964 C 26.75627690241056,135.07018839879782 26.983789799643745,136.00569440778557 27.224467322929538,136.93790031962016 C 27.4784704630039,137.86656381146864 27.745950333986993,138.7914356483386 28.027068995584926,139.7122535532089 C 28.3219891107591,140.62874433357453 28.630875595909234,141.5406227635076 28.953900642905502,142.4475890408688 C 29.29123321496321,143.3493316173693 29.643048682788372,144.24552277142092 30.00951980457369,145.13582140506344 C 30.39082079926026,146.01987007516857 30.785047314562277,146.8982338830572 31.190449704601768,147.77149694153118 C 31.60679760853129,148.6395928786729 32.03412781677263,149.5023368968662 32.47232008453037,150.35961442354372 C 32.92130448301428,151.2112895630762 33.38099442389682,152.05723431706696 33.85130820265115,152.89731898115883 C 34.33214889019145,153.7314230022196 34.82342851049725,154.5594214922818 35.3250549288315,155.38119279365193 C 35.836925006083575,156.19662280650815 36.35893721472084,157.0055976415331 36.89099884033203,157.80799865722656" fill="none" stroke="yellow" stroke-width="2" /><line x1="-990.8293461799622" y1="112.83996" x2="1209.1693425178528" y2="112.83996" stroke="red" stroke-dasharray="5,5" stroke-width="1" /><path d="M 176.50000000000006,67.50000000000001 C 175.60955698330991,66.20555388889554 174.70276835912597,64.92250658700854 173.77848185321557,63.65200756251223 C 172.8356031979206,62.39524611821176 171.87300621915674,61.153524313707244 170.88960093773116,59.928218144268 C 169.88432617645773,58.720791323272245 168.85614274704378,57.532813942941495 167.80407840713875,56.36593494083994 C 166.72720162915869,55.22191730844042 165.6246534230913,54.102622416811734 164.49567055897225,53.009999938249095 C 163.33959120825293,51.946091971926066 162.15589137825205,50.91300632825943 160.9441783651964,49.91292906517421 C 159.70424818964088,48.948061401759865 158.43638369611867,48.020207450646765 157.1441949322123,47.12653338856677 C 155.82964032497966,46.26609654393944 154.49374139004422,45.43918626296661 153.13755308448398,44.645989140719955 C 151.76212442566649,43.88664316910425 150.3685139583349,43.16120396664465 148.95775899148825,42.46969474492683 C 147.53089172931521,41.81207299877557 146.0889319841749,41.18823732336621 144.63287107927857,40.59806127698893 C 143.16367982051517,40.04137427897784 141.6823082531872,39.51795851499079 140.18967371124782,39.02758111439004 C 138.6866719591638,38.5699612792038 137.1741622890092,38.144818120570235 135.65298075276348,37.75182833064023 C 134.12392852348466,37.390669577194245 132.58778023863792,37.06099269237827 131.04527815143084,36.76245035004013 C 129.4971373640721,36.49467783560686 127.94404392491373,36.257307849069996 126.38665573996076,36.04997351008388 C 124.8256041604139,35.872308052105375 123.26149576138857,35.72393840041497 121.69491165921971,35.604505555205776 C 120.12641067868475,35.51364277233974 118.55652914799383,35.450995689179635 116.98578263677308,35.41622156085959 C 115.41466761939266,35.40896904762687 113.84366212866689,35.42891348301878 112.273227325129,35.475728288134206 C 110.70380870739807,35.54909813516747 109.13583733402442,35.64872060968915 107.56973099927794,35.77430176195568 C 106.00589544817724,35.925558964256204 104.44472522801065,36.10221869341608 102.88660575949028,36.30402408851623 C 101.3319128784085,36.53072281591101 99.78101478160775,36.78207498370851 98.23427364657434,37.057856031360764 C 96.692045377569,37.35784869953777 95.15468067555642,37.68184541395285 93.62252760364001,38.02965487466598 C 92.09593041445746,38.40109228371057 90.57523256797487,38.79598846079448 89.0607723511441,39.21416954143767 C 87.55289358008011,39.65549354257581 86.05193549493674,40.11981049217247 84.55824060503099,40.60698713325666 C 83.07215459707051,41.11690274350696 81.59402344276988,41.6494380202802 80.12419678457478,42.204483029716364 C 78.66302961048966,42.7819393393664 77.21088239415656,43.381717401275836 75.76811758560318,44.00372603671939 C 74.33510907234312,44.647893318244115 72.91223290389354,45.314142523366904 71.49987462938617,46.00240724404081 C 70.09842962777212,46.71262961668986 68.70829691928355,47.444746192329774 67.32989080636203,48.19870890892035 C 65.96362861033724,48.97446042633534 64.60994759976526,49.7719627024134 63.2692844254084,50.59115981389766 C 61.94209698349075,51.432013325717975 60.62885048544365,52.294477300641454 59.33002190352321,53.17850446636715 C 58.04609900739842,54.08404357396984 56.77758932414704,55.01105034645183 55.52500696262187,55.95946743138887 C 54.28888072815355,56.92923475892391 53.06975403732921,57.92028768982518 51.868182932898605,58.93255333893141 C 50.6847349029742,59.965948107210906 49.5199956743973,61.02038417621471 48.374554875265915,62.095752586748226 C 47.24902365778397,63.19194159556013 46.14402092551414,64.30882057065007 45.06016967561999,65.44623647029131 C 43.998118425378564,66.60403378306353 42.95851013262735,67.78202393950309 41.94200134277344,68.9800033569336" fill="none" stroke="yellow" stroke-width="2" /><line x1="109.50332" y1="-99.08178126066923" x2="109.50332" y2="333.3090834617615" stroke="red" stroke-dasharray="5,5" stroke-width="1" /><path d="M 36.89099884033204,157.8079986572266 C 37.74534462178649,159.05266445464264 38.623760372578545,160.280461469519 39.525821136310284,161.49099298117437 C 40.45111734482339,162.6838582233767 41.39919207876008,163.85870081506522 42.3696169803251,165.01515079636474 C 43.36194142423096,166.1528650128208 44.37571297061447,167.27151115626927 45.41046051162289,168.37078344042538 C 46.465730270794865,169.45037059147901 47.54105589783743,170.50998263204417 48.63597034238701,171.54934106088504 C 49.75000994735139,172.56817346352486 50.88269263055376,173.5662385509893 52.03356070340236,174.54327863362562 C 53.20213893932476,175.49906622249387 54.38797252581361,176.43335944646392 55.590579436402635,177.3459613005009 C 56.80950840333734,178.23664536081537 58.044286101745215,179.1052248984486 59.29446544836662,179.9514863182929 C 60.559582255591955,180.77524990346998 61.83918451915679,181.57632736692102 63.13281448161693,182.35454896214034 C 64.4400295617266,183.109728829174 65.76038399762623,183.84169342767547 67.09342692031969,184.5502867558872 C 68.43871717083434,185.23534327572347 69.79581697511503,185.89669692587842 71.16428594138043,186.53419287120664 C 72.5436860409636,187.14767802877816 73.9335910142039,187.73697680896524 75.33355483362244,188.30196360238168 C 76.74315240514228,188.84246678729932 78.16195055938559,189.3583357462811 79.58951057140173,189.84943800606305 C 81.02540840154148,190.31559924045288 82.4692033957845,190.75669438480304 83.92046901377566,191.17255122645437 C 85.37876550123323,191.56303835049658 86.84365799346736,191.9280025092036 88.3147079860934,192.26729637978738 C 89.79147172716165,192.58078832591886 91.27351148759837,192.86830642177964 92.76037468237655,193.12973691300598 C 94.25161459884836,193.36492111947908 95.7467772295271,193.5737190487243 97.24540210849189,193.75601323294384 C 98.7470303860921,193.91164057828615 100.25119345213655,194.04048279098333 101.75741840287218,194.1424310216732 C 103.26523082666067,194.21731951916152 104.77414636694026,194.26507165922726 106.28367825648206,194.285550051229 C 107.79333318914185,194.2786462463023 109.30261258078406,194.24428056070326 110.81101179057154,194.18233609324434 C 112.31802130671976,194.0927407244486 113.82312399346615,193.97539385876308 115.3258018813966,193.83026187151373 C 116.82552885113589,193.65727898691355 118.32177330343129,193.45638966244272 119.81399844840503,193.22754976538116 C 121.3016715006979,192.97077745005018 122.78424283307636,192.68602290827437 124.26117249501296,192.37332251457738 C 125.73191263970757,192.0326966655303 127.19591332050042,191.66418032917235 128.6526271204253,191.2678380415696 C 130.10150096036102,190.84373130012722 131.5419887166175,190.3919604567996 132.97354219723263,189.9126310222272 C 134.3956224856423,189.40588696980421 135.80768721968693,188.87186920514603 137.20920799288848,188.310761826552 C 138.5996477334906,187.72273156186918 139.9784991929124,187.10801956684932 141.34524439145838,186.4668408894436 C 142.69938224291823,185.79944802455867 144.0404260111039,185.10611924810775 145.3679059324644,184.3871613847563 C 146.68134570613546,183.64286332609743 147.9803083401374,182.87357781374857 149.26435659607088,182.07964773751618 C 150.53307620808346,181.26144512249573 151.7860714472228,180.41935940765978 153.02296744160677,179.55379894778005 C 154.24339475587175,178.66516830454364 155.44701222378384,177.75389832760513 156.63352066916622,176.82046049052173 C 157.8026117335697,175.8652979932371 158.9540108242946,174.8888808401543 160.0874619539169,173.8916850323389 C 161.20274116553196,172.87420568664115 162.29963228425655,171.8369289858868 163.37796534600935,170.78037249433655 C 164.4375574908409,169.70502170806688 165.47826907849458,168.6113877508499 166.5,167.5" fill="none" stroke="yellow" stroke-width="2" /><path d="M 42.964000701904304,70.03099822998045 C 43.89324309697777,71.06266874760739 44.8957870749278,72.02322464834089 45.968098140021695,72.90519691663424 C 47.104033778977076,73.70356007864338 48.29542337495914,74.41656563385341 49.53298562406199,75.0460996149516 C 50.80734209992204,75.59745619860101 52.109850417105505,76.07866114187135 53.43308908258652,76.49963927564774 C 54.77101289464336,76.87142249952443 56.11885220188951,77.20556642095016 57.472877640691216,77.51375200285236 C 58.83008650959026,77.80763781784079 60.18789689387618,78.09873895244458 61.543819246144324,78.39849013324567 C 62.89515677880951,78.71822985857308 64.23870826225823,79.06918534834331 65.57048659252412,79.46238223836134 C 66.8854975563822,79.90837079839005 68.17760175740412,80.41683700585357 69.43955305515429,80.99602604248585 C 70.66327462685818,81.65207940819941 71.84039455408482,82.38844189902115 72.9630102319528,83.20547823802029 C 74.02447840647805,84.10052522391831 75.02006251542944,85.06834664361989 75.9472283813565,86.10192926294006 C 76.8056167657755,87.193338711674 77.59668281150887,88.33451994729927 78.32324341475139,89.51784517169794 C 78.98897250303173,90.73645640133871 79.59798183463036,91.98440005398689 80.15447486219388,93.25664010484532 C 80.6634586662603,94.54866082431344 81.12056848921891,95.85985569182006 81.50069208901164,97.19535280694559 C 81.80901894869143,98.54927096858367 82.05542005843921,99.91584440095323 82.24786494395586,101.29107039491251 C 82.3927596477933,102.67212595412639 82.49534874946562,104.05697382999053 82.5599040687967,105.44412030033054 C 82.58995060660884,106.83244635757298 82.58842357533231,108.22109914482263 82.55773843868963,109.60941563486098 C 82.49992342640905,110.99686856773847 82.41665076947817,112.38302741739992 82.30930426000673,113.76753069603473 C 82.17901145170723,115.15006393154968 82.0266755430255,116.5303425121547 81.8529781497214,117.90809608965874 C 81.65841963457751,119.28305893069758 81.4433016780933,120.65495545497646 81.20770592106336,122.02348377219651 C 80.95153242561918,123.38830950763312 80.67442206017655,124.74903810052358 80.37575238386361,126.10519683293847 C 80.05453494636478,127.45619125287658 79.70936336781948,128.80126286813118 79.33822627296065,130.1393998033409 C 78.93828533438214,131.46920668165922 78.50531326301567,132.78862555452628 78.03361132938745,134.09470307134018 C 77.51882722957244,135.38439744504765 76.95670322858527,136.65416143730948 76.34263691422046,137.8996184275404 C 75.67181417266332,139.11542328738219 74.93944292654788,140.2951479125569 74.14107626980217,141.43121274415685 C 73.27316944462387,142.5150374692656 72.33360630746229,143.53732166838245 71.32242911034125,144.48878340247398 C 70.24228656468057,145.3611345679335 69.09855349348342,146.14826144297126 67.89890214204134,146.8472396489765 C 66.65244752132607,147.45893035167236 65.36863925363562,147.98785151376643 64.05632911378306,148.44158824573546 C 62.72313352325342,148.82982787067195 61.37521062277275,149.1634940005115 60.01729365450073,149.45393978742965 C 58.652935221600714,149.71253435991468 57.28478208189649,149.95029774311763 55.91489345417734,150.1778787062995 C 54.544996221633994,150.40540814155017 53.17674878256632,150.6426329462954 51.811931103000894,150.8988119202594 C 50.4526370004175,151.18279114954484 49.10140439889594,151.50288086485213 47.7613115067286,151.86674378489317 C 46.43602473582363,152.28125143702468 45.129755416313635,152.75222861495558 43.84713337359746,153.28420754217262 C 42.592993962551155,153.8802171718078 41.37212529435142,154.54169798557882 40.18891968314584,155.26840338939851 C 39.04713013873441,156.05860297340664 37.9496172836342,156.90924782823754 36.89100000000001,157.80800000000002" fill="none" stroke="yellow" stroke-width="2" /><line x1="-990.8293461799622" y1="114.71033" x2="1209.1693425178528" y2="114.71033" stroke="red" stroke-dasharray="5,5" stroke-width="1" /><path d="M 166.50000000000006,167.50000000000003 C 167.1940625777257,166.64615648878694 167.88384288347237,165.78884970803492 168.56912512842348,164.92794328642694 C 169.24968037271654,164.06329527960622 169.9252903747987,163.19477771461953 170.59571131568546,162.3222484651194 C 171.2606797868811,161.44555671326924 171.91993826964557,160.56456311194592 172.57320160539777,159.679115016653 C 173.22017222420968,158.7890586566982 173.8605567458973,157.8942520675974 174.49403070242192,156.9945400305318 C 175.12027310912777,156.08977958263944 175.73893058056922,155.1798161192689 176.3496476635524,154.26450445312332 C 176.95206568611172,153.3437098684362 177.54578455548491,152.4172821914942 178.13042357480694,151.48509820547923 C 178.70556837575938,150.54702671404388 179.27081923776413,149.60296061609347 179.8257268460466,148.6527782634866 C 180.36986336820976,147.696387087484 180.90279505434293,146.7337074448618 181.42405164681924,145.7646565884501 C 181.9332178789395,144.78919920955238 182.42979671048826,143.8072742408072 182.91337605015894,142.81888279563887 C 183.3834922659347,141.82401755692788 183.83970880080489,140.82270231359809 184.28159167950085,139.81497973351992 C 184.70873686210655,138.80092260562563 185.12074666465196,137.78062247396508 185.51725640385476,136.7541994924187 C 185.8979026746267,135.72178871669416 186.26237849581915,134.6835590866478 186.61040100400837,133.6396991971141 C 186.94170616998989,132.59041389606222 187.25609562691528,131.53593670265013 187.5533883354748,130.47651256263111 C 187.83347123815693,129.4124091111709 188.09625758220682,128.34390272582434 188.34171278154815,127.27128235116407 C 188.56983315591077,126.19484201239015 188.78067907323293,125.1148850447128 188.97436072210715,124.03171808452353 C 189.1509950523574,122.94564080956293 189.31077537350197,121.85695621878149 189.45394233366008,120.76596236402024 C 189.58071617574439,119.67294221716911 189.69139213436088,118.57817467010831 189.78630774998905,117.48192812152598 C 189.86577279693853,116.38445312402153 189.93017251985714,115.2859909874334 189.9798891180825,114.18676615458267 C 190.01530506376452,113.08698753933506 190.03684236839064,111.98684940021609 190.04490590481944,110.88652985978402 C 190.03992370689502,109.78619181021807 190.02232312492808,108.68598337137564 189.99259363109536,107.58603507152046 C 189.9506731127096,106.48648407888409 189.89484974880972,105.38755232125527 189.82401554836758,104.28948500557513 C 189.73790302985864,103.19251079662821 189.63612521827866,102.09687895798484 189.51832523822583,101.00285401776782 C 189.38417286333976,99.91071381485094 189.2334146179465,98.82074189892886 189.06577541607913,97.73323848527238 C 188.88103345144032,96.64850964397797 188.67901239822945,95.5668656664062 188.4595728728496,94.48862076631092 C 188.22261444718959,93.41408985942573 187.96807507330632,92.34358752693946 187.69596777807868,91.27741519221439 C 187.4063177805857,90.21587453642009 187.09920322442687,89.15925423446664 186.7747408004424,88.10783135793204 C 186.43309852810197,87.06186449733043 186.0744959279061,86.02159023574227 185.6991719906813,84.98723126859663 C 185.3074027976145,83.95898814938838 184.89948398229774,82.93704425983901 184.47576788553582,81.9215481280266 C 184.03661107377877,80.91263329444538 183.58240475034194,79.9104032840517 183.1135365678771,78.91494796579373 C 182.63042966312224,77.92632428361517 182.13351088149906,76.94457015860057 181.6232119705158,75.96970361902892 C 181.0999512226475,75.00173236168494 180.56419726760296,74.04061939606432 180.01638209644688,73.0863294415457 C 179.45693053319047,72.13881427554368 178.88627056502068,71.19800688797835 178.30483787086982,70.26381868555956 C 177.713045310654,69.33615855892455 177.11130114272288,68.41492239869206 176.5,67.5" fill="none" stroke="yellow" stroke-width="2" /><path d="M 176.50000000000006,67.50000000000003 C 175.3017075111888,68.87272452515714 174.01110381185237,70.15896314912708 172.62757109065276,71.34458781959432 C 171.15408076831713,72.41628809433564 169.59758372495892,73.36336849857842 167.96859493034884,74.17950330569106 C 166.27998955576075,74.86392374507813 164.54532233879567,75.42155946189504 162.77723986254654,75.86218675482293 C 160.98640683527265,76.19896567769034 159.18107533156333,76.44692202386727 157.36715554601352,76.62174019853343 C 155.54856690835535,76.73888728006204 153.72770127706426,76.81318467940545 151.90587434102153,76.85869148046032 C 150.08371785666654,76.8886396992391 148.26151309827384,76.91558167073701 146.43946771567167,76.95153642104208 C 144.61795277703462,77.00805920571082 142.79771495908608,77.09637530482483 140.9800685045232,77.22739807752576 C 139.16706615816545,77.41166963109434 137.36164198831355,77.6592468823247 135.56769482811234,77.97942964295054 C 133.7901022577547,78.38047818533072 132.03461308761547,78.86920362865746 130.3076224522109,79.45060923875441 C 128.61581121539012,80.12755925290219 126.96572718078383,80.90066633279253 125.36329261775735,81.76824790231953 C 123.81310698235404,82.72610433697201 122.30874976772519,83.75457584235083 120.84864440240676,84.84494220588566 C 119.43682175493166,85.99712976165858 118.07728708095605,87.21056306780591 116.77406032979727,88.48427070538897 C 115.5311327671247,89.81687708956542 114.35243133425378,91.20660764836492 113.24175473253767,92.65127599613987 C 112.20272619415917,94.14829669347152 111.23874392098635,95.69470373550025 110.35296163579207,97.2871904677843 C 109.54822423808218,98.92212526960226 108.82706932970257,100.59560717398008 108.19167822589517,102.30349427581422 C 107.64389813710552,104.04146254302925 107.18523264031346,105.8050446081085 106.81683364464382,107.58966697367634 C 106.53951927889432,109.39069265997328 106.35378829169602,111.20345380963066 106.25985511321188,113.02328311138368 C 106.25762478069586,114.84553484848809 106.34675189740777,116.66560829344021 106.52663672609764,118.47896348439842 C 106.79644195868099,120.28113606375574 107.15510395939242,122.06774959633653 107.601358267492,123.83452321013965 C 108.13370700863928,125.57729192213966 108.7504695689068,127.29200713559882 109.44976495739192,128.97475394517974 C 110.22951072109069,130.62176769314408 111.0874358120999,132.22944633633116 112.02110215473435,133.7943558814165 C 113.0278510432747,135.3132831956877 114.10489090264021,136.78320805214935 115.24925183786027,138.20135591582488 C 116.45782103520654,139.565202319865 117.72735924789424,140.87249040506063 119.05449287110838,142.12127437791438 C 120.4458513188876,143.29793006997366 121.90489808756597,144.3895550033058 123.4230114960347,145.39746344020844 C 124.99146077670888,146.32515590746416 126.60190492030965,147.17792463841144 128.24668711704152,147.9624813837799 C 129.91904326608554,148.6864599632653 131.61313364843312,149.3580605659709 133.3239799175363,149.98579578087006 C 135.04736961068053,150.5782640484629 136.7797102548303,151.14405405214 138.51787231103407,151.6917183697831 C 140.2590486123628,152.2297330461402 142.000606254537,152.76651333514204 143.73992342161776,153.3105020408836 C 145.47425708616026,153.87015946017038 147.20058109488704,154.454031006131 148.91544834244098,155.07070823820038 C 150.61482408303738,155.72883347410647 152.29395421493922,156.436973628151 153.94722231465104,157.20350231683116 C 155.56810265782084,158.03627932581819 157.14914736034342,158.94235274602778 158.68213387548687,159.92750431139112 C 160.15832655599792,160.9958370957945 161.5689704057675,162.1493048756502 162.90580582878496,163.38753764823304 C 164.161612866673,164.70785416960402 165.3303612823602,166.10582667413115 166.5,167.50099999999998" fill="none" stroke="yellow" stroke-width="2" /><polygon points="13.244999885559082,227.7550048828125 4.755471229553223,104.1456069946289 2.5006909370422363,50.77862548828125 1.5,1.5" fill="none" stroke="yellow" stroke-width="2" /><polygon points="224.64700317382812,215.67999267578125 198.6738739013672,220.58615112304688 169.50950622558594,224.93649291992188 92.23332214355469,233.30914306640625 70.30072784423828,233.10302734375 13.244999885559082,227.7550048828125" fill="none" stroke="yellow" stroke-width="2" /><polygon points="216.77699279785156,2.1070001125335693 220.53408813476562,22.766386032104492 223.482421875,44.53171157836914 225.60707092285156,67.39788818359375 226.95718383789062,92.35447692871094 227.28488159179688,144.47491455078125 224.64700317382812,215.67999267578125" fill="none" stroke="yellow" stroke-width="2" /><line x1="-990.8293461799622" y1="108.54538" x2="1209.1693425178528" y2="108.54538" stroke="red" stroke-dasharray="5,5" stroke-width="1" /><line x1="-890.8294057846069" y1="0.9181591346859932" x2="1109.1694021224976" y2="3.064840905368328" stroke="yellow" stroke-width="2" /></svg>