<svg xmlns="http://www.w3.org/2000/svg" version="1.1" viewBox="-990.8293461799622 -99.08178126066923 2199.998688697815 432.3908647224307"><path d="M 41.94200134277344,68.98000335693362 C 41.33078189019423,69.7238759879174 40.72864527922278,70.47511985546429 40.135738744141946,71.23366955599394 C 39.55221838422265,71.9994631390089 38.97823443361216,72.77243038401197 38.41394331091009,73.55250178358173 C 37.85950102605938,74.33960390907805 37.315055102823536,75.13365340140332 36.78075989376513,75.93456830764266 C 36.25676413906286,76.74225917614135 35.743227949696646,77.55664035104623 35.240289249484434,78.37760861857467 C 34.748100128103715,79.20506620902631 34.26680616009935,80.03890818346935 33.79654900099445,80.87902395953705 C 33.337470696472444,81.72530023356707 32.88970900510625,82.57761816801097 32.45339684221024,83.43585373787434 C 32.02867001861503,84.29988132483783 31.6156587108374,85.16956977085766 31.21443808052514,86.04476102843773 C 30.825621531348137,86.92553068418461 30.449942855844373,87.81198271976439 30.08739145651726,88.70388496919902 C 29.737784705997605,89.60094003842049 29.400986128588055,90.50288223949772 29.076849242293736,91.40945177574459 C 28.76524072318774,92.32040364485627 28.466037184771796,93.23550499160089 28.17911356028921,94.15453066168455 C 27.904355295717696,95.07726642145772 27.641651719024875,96.00350630336642 27.39090192412383,96.93305353377754 C 27.15200803356031,97.86571816384694 26.924882249495152,98.80131824281438 26.709443272055474,99.73967836870308 C 26.5056096658057,100.68062767614467 26.313311734346215,101.6240020770091 26.1324883723822,102.56964297869636 C 25.963080419339803,103.51739546142689 25.805033556335523,104.46710861067625 25.658305347238592,105.41863616771026 C 25.52285759342033,106.37183490813104 25.398653374811914,107.32656378081032 25.28566780989869,108.2826852298802 C 25.183879116772278,109.2400634261914 25.09327575969252,110.19856487105531 25.0138464689957,111.15805690803523 C 24.945589705559463,112.11840841662074 24.888505486838923,113.07948874549618 24.842607756117708,114.04116822161788 C 24.807908256160516,115.00331684432616 24.784430521441074,115.96580467269979 24.772200666160472,116.92850113160216 C 24.77125247830995,117.89127479182852 24.781621416643397,118.85399310248503 24.803358065811857,119.81652181216 C 24.836508511591,120.77872507455818 24.88113200233071,121.74046450327322 24.937290665563232,122.70159938495563 C 25.005053510114294,123.6619858512066 25.08449405173387,124.62147698374419 25.17569244284373,125.57992197512307 C 25.27873831255353,126.53716569119035 25.39371983528832,127.49304914602229 25.520735405720146,128.44740807963151 C 25.659890019537485,129.4000726999867 25.81129609703678,130.3508671384621 25.97506527001889,131.29961025172722 C 26.15131725225653,132.24611383066917 26.340182330298212,133.1901814864664 26.541789355242432,134.13161035683964 C 26.75627690241056,135.07018839879782 26.983789799643745,136.00569440778557 27.224467322929538,136.93790031962016 C 27.4784704630039,137.86656381146864 27.745950333986993,138.7914356483386 28.027068995584926,139.7122535532089 C 28.3219891107591,140.62874433357453 28.630875595909234,141.5406227635076 28.953900642905502,142.4475890408688 C 29.29123321496321,143.3493316173693 29.643048682788372,144.24552277142092 30.00951980457369,145.13582140506344 C 30.39082079926026,146.01987007516857 30.785047314562277,146.8982338830572 31.190449704601768,147.77149694153118 C 31.60679760853129,148.6395928786729 32.03412781677263,149.5023368968662 32.47232008453037,150.35961442354372 C 32.92130448301428,151.2112895630762 33.38099442389682,152.05723431706696 33.85130820265115,152.89731898115883 C 34.33214889019145,153.7314230022196 34.82342851049725,154.5594214922818 35.3250549288315,155.38119279365193 C 35.836925006083575,156.19662280650815 36.35893721472084,157.0055976415331 36.89099884033203,157.80799865722656" fill="none" stroke="yellow" stroke-width="2" /><line x1="-990.8293461799622" y1="112.83996" x2="1209.1693425178528" y2="112.83996" stroke="red" stroke-dasharray="5,5" stroke-width="1" /><path d="M 176.50000000000006,67.50000000000001 C 175.60955698330991,66.20555388889554 174.70276835912597,64.92250658700854 173.77848185321557,63.65200756251223 C 172.8356031979206,62.39524611821176 171.87300621915674,61.153524313707244 170.88960093773116,59.928218144268 C 169.88432617645773,58.720791323272245 168.85614274704378,57.532813942941495 167.80407840713875,56.36593494083994 C 166.72720162915869,55.22191730844042 165.6246534230913,54.102622416811734 164.49567055897225,53.009999938249095 C 163.33959120825293,51.946091971926066 162.15589137825205,50.91300632825943 160.9441783651964,49.91292906517421 C 159.70424818964088,48.948061401759865 158.43638369611867,48.020207450646765 157.1441949322123,47.12653338856677 C 155.82964032497966,46.26609654393944 154.49374139004422,45.43918626296661 153.13755308448398,44.645989140719955 C 151.76212442566649,43.88664316910425 150.3685139583349,43.16120396664465 148.95775899148825,42.46969474492683 C 147.53089172931521,41.81207299877557 146.0889319841749,41.18823732336621 144.63287107927857,40.59806127698893 C 143.16367982051517,40.04137427897784 141.6823082531872,39.51795851499079 140.18967371124782,39.02758111439004 C 138.6866719591638,38.5699612792038 137.1741622890092,38.144818120570235 135.65298075276348,37.75182833064023 C 134.12392852348466,37.390669577194245 132.58778023863792,37.06099269237827 131.04527815143084,36.76245035004013 C 129.4971373640721,36.49467783560686 127.94404392491373,36.257307849069996 126.38665573996076,36.04997351008388 C 124.8256041604139,35.872308052105375 123.26149576138857,35.72393840041497 121.69491165921971,35.604505555205776 C 120.12641067868475,35.51364277233974 118.55652914799383,35.450995689179635 116.98578263677308,35.41622156085959 C 115.41466761939266,35.40896904762687 113.84366212866689,35.42891348301878 112.273227325129,35.475728288134206 C 110.70380870739807,35.54909813516747 109.13583733402442,35.64872060968915 107.56973099927794,35.77430176195568 C 106.00589544817724,35.925558964256204 104.44472522801065,36.10221869341608 102.88660575949028,36.30402408851623 C 101.3319128784085,36.53072281591101 99.78101478160775,36.78207498370851 98.23427364657434,37.057856031360764 C 96.692045377569,37.35784869953777 95.15468067555642,37.68184541395285 93.62252760364001,38.02965487466598 C 92.09593041445746,38.40109228371057 90.57523256797487,38.79598846079448 89.0607723511441,39.21416954143767 C 87.55289358008011,39.65549354257581 86.05193549493674,40.11981049217247 84.55824060503099,40.60698713325666 C 83.07215459707051,41.11690274350696 81.59402344276988,41.6494380202802 80.12419678457478,42.204483029716364 C 78.66302961048966,42.7819393393664 77.21088239415656,43.381717401275836 75.76811758560318,44.00372603671939 C 74.33510907234312,44.647893318244115 72.91223290389354,45.314142523366904 71.49987462938617,46.00240724404081 C 70.09842962777212,46.71262961668986 68.70829691928355,47.444746192329774 67.32989080636203,48.19870890892035 C 65.96362861033724,48.97446042633534 64.60994759976526,49.7719627024134 63.2692844254084,50.59115981389766 C 61.94209698349075,51.432013325717975 60.62885048544365,52.294477300641454 59.33002190352321,53.17850446636715 C 58.04609900739842,54.08404357396984 56.77758932414704,55.01105034645183 55.52500696262187,55.95946743138887 C 54.28888072815355,56.92923475892391 53.06975403732921,57.92028768982518 51.868182932898605,58.93255333893141 C 50.6847349029742,59.965948107210906 49.5199956743973,61.02038417621471 48.374554875265915,62.095752586748226 C 47.24902365778397,63.19194159556013 46.14402092551414,64.30882057065007 45.06016967561999,65.44623647029131 C 43.998118425378564,66.60403378306353 42.95851013262735,67.78202393950309 41.94200134277344,68.9800033569336" fill="none" stroke="yellow" stroke-width="2" /><line x1="109.50332" y1="-99.08178126066923" x2="109.50332" y2="333.3090834617615" stroke="red" stroke-dasharray="5,5" stroke-width="1" /><path d="M 42.9640007019043,70.03099822998047 C 44.9865337110687,72.10330546365655 47.307952392019395,73.83397037224913 49.86297653628081,75.19751446110124 C 52.56910744471599,76.231703186364 55.35734562480324,77.02096142339903 58.182322132730576,77.6684759592262 C 61.015451555373126,78.27984684205396 63.83290692116232,78.9589540326321 66.60360688389466,79.80721929479787 C 69.27933946332021,80.91739149043124 71.79273108684359,82.35637395762227 74.07152552199611,84.14329282244046 C 76.06528407379515,86.24385549064887 77.76200183974089,88.59158176704213 79.18191318139621,91.11699152159906 C 80.36037898828408,93.76412783159721 81.31348928120896,96.50010189402784 81.95618148582182,99.32514357802812 C 82.34790954655713,102.19627920797849 82.54673740216786,105.08743079642323 82.59079920519032,107.98520123050815 C 82.505693409655,110.88212522653768 82.30877851898444,113.77364094616868 82.01165039425723,116.65660532710228 C 81.62147788888043,119.5284683895642 81.14161738089116,122.38671533248475 80.57149247800275,125.22832569460687 C 79.90565704178009,128.04901873059308 79.13114706921102,130.84176459030542 78.22036380393553,133.59292581528894 C 77.12966138416957,136.27759808650137 75.81849283153174,138.86136118656057 74.24387064226896,141.2928843395872 C 72.36960461244027,143.5007529320537 70.18633227485435,145.40271726792085 67.73026444016959,146.93636041911705 C 65.07622007276983,148.09594323430787 62.30439208407654,148.93913780495998 59.473804113532566,149.5602560341926 C 56.61920166963602,150.061521967134 53.76055764149609,150.53957527707615 50.91370699551331,151.0826626196202 C 48.09859252303691,151.77029940464604 45.34439280050887,152.67019358704303 42.69007661179119,153.83118506774977 C 40.17840570826853,155.27507822787595 37.78955549366635,156.9865663385455 37.82558323362165,159.16224887822574 C 39.53333597085337,161.50076973532617 41.330142300684045,163.77467900420822 43.209514657872155,165.98092845861404 C 45.168174712584076,168.11710179555237 47.20286166482035,170.18099355177898 49.3102908422431,172.17055535565123 C 51.487138822290994,174.08391901030353 53.73008609117407,175.91935590821754 56.035843464368774,177.67524237829812 C 58.40111423083726,179.35010348348192 60.82264802502074,180.9425390201492 63.29722643176653,182.45122974587085 C 65.82166164191322,183.87492964349818 68.39279840174535,185.2124486462268 71.00751441122478,186.46263548642145 C 73.66271546395058,187.62436599506697 76.35532014050683,188.69655694600596 79.08226927914735,189.67811878635598 C 81.84049888424083,190.56799758351772 84.62694695038323,191.36513008090742 87.43853160624316,192.06848102548346 C 90.27215332979172,192.67699875567368 93.12467149033913,193.18967837893632 95.99290745140868,193.60551000131903 C 98.87362770924689,193.92352896488748 101.76354154181035,194.14279016876642 104.65929057935612,194.26239412918991 C 107.55744325907335,194.2815334673653 110.45449541072114,194.1994743492898 113.3468656690818,194.01555212957385 C 116.23089972518997,193.7292466708622 119.10287252744486,193.34016838597336 121.95900135157675,192.84810360171542 C 124.79544640093417,192.25298207579954 127.60834289066747,191.55498960016388 130.39380486453967,190.7545061803733 C 133.14794680248443,189.85213777641604 135.86692528545882,188.8487842611091 138.54695042637485,187.74559541561877 C 141.1843251566736,186.54400636450768 143.77545916354032,185.24570368376055 146.31694007237596,183.8527046920622 C 148.8055076181336,182.36723734298806 151.23814451338546,180.79184136708648 153.61203874777132,179.12924182138147 C 155.92465380807784,177.3824044864874 158.1737463552734,175.55450066408022 160.35734043622125,173.64882763314458 C 162.47377045755883,171.66882192711242 164.5216809244298,169.61802012885053 166.5,167.5" fill="none" stroke="yellow" stroke-width="2" /><path d="M 166.5,167.50000000000003 C 168.33405508288348,165.22432691353538 170.13531680466042,162.92261608825572 171.89935181485677,160.59225991443628 C 173.6211088837713,158.23050522599448 175.29493890146492,155.83455659773338 176.9145316387298,153.40163108393585 C 178.4729346291323,150.92908074318646 179.96262300475712,148.41455148403531 181.37551560561016,145.85610358916287 C 182.70325786726403,143.25247060156616 183.93742645821536,140.6032228737293 185.06990340057092,137.90895709157348 C 186.0933844627969,135.17144740326287 187.00177900271015,132.39363910422466 187.79069235790772,129.57957113724 C 188.45780299926562,126.73416630546966 189.00296336659162,123.86289345539487 189.42826045166353,120.97142220596497 C 189.73776158113228,118.0652577602981 189.9371405830853,115.14944819217797 190.03328207567165,112.2283912523249 C 190.0337720081442,109.30573268257716 189.94610511876945,106.38437542844318 189.76096741318133,103.46762403345835 C 189.465937411989,100.55995151604695 189.05490477065786,97.6664157609709 188.52328488232573,94.79260436643864 C 187.86837364191797,91.94436818511909 187.08966918148442,89.12746168454272 186.18877335043405,86.34721815795257 C 185.1694578964157,83.60816299421882 184.03714639958957,80.91383828296154 182.79867687182238,78.26661081061418 C 181.46172671685028,75.6677040815559 180.0344026688888,73.11733952549707 178.52475769241434,70.61746099997337 C 176.94645317983097,68.05054883932299 175.09044386666486,69.08949432014118 172.9499987535217,71.08487651255008 C 170.57718500991558,72.78801764431482 168.0011842962742,74.16475961677463 165.2713963622459,75.2045415906456 C 162.44207755478675,75.93297755265199 159.55788605017668,76.40183920720507 156.6481942348954,76.67412943655043 C 153.72887781543312,76.81314745131536 150.80685725464232,76.87779538729605 147.88442605119153,76.92189606951993 C 144.96261961023603,76.99525991123721 142.04381655268588,77.14488865295266 139.133885588514,77.41560932609045 C 136.24393419417478,77.84935738435377 133.39133692238056,78.48301774974689 130.59938868229196,79.34491024361087 C 127.89497854737633,80.4509583291996 125.30448854750716,81.80240855228641 122.84382103280223,83.378444604107 C 120.49826038191514,85.12142028460028 118.27946382400346,87.02307728524517 116.20392751342649,89.08007490025176 C 114.28806305789863,91.28649973786477 112.54764637417489,93.63375087111753 110.99728047664921,96.11061063803099 C 109.6499581427223,98.7034983937756 108.51668404738162,101.39681468899015 107.60625389510757,104.17338419406195 C 106.92516728697862,107.01492153192675 106.4776775716485,109.9024785749015 106.26588909676914,112.81682466375163 C 106.28995492461276,115.73876558451273 106.54824390726884,118.64937748500226 107.03751376740905,121.53018475275067 C 107.75304731587244,124.36329437506055 108.68871867967391,127.13152193358899 109.83708188551361,129.81850879649213 C 111.18940771228574,132.40886214906493 112.73571916937314,134.88832339375384 114.46485161694112,137.24395721884932 C 116.36456032787203,139.46434895525877 118.42167335851595,141.53979279090487 120.63507274336929,143.4471257687051 C 123.01700299334829,145.13936880740926 125.53439707226546,146.62302764389284 128.15313986569308,147.9199241221817 C 130.84403655270341,149.06004900398784 133.58384579437083,150.0774246136614 136.35462781493933,151.0074322196029 C 139.14238455648723,151.885422107801 141.93547411709187,152.7463534818483 144.72301880072018,153.625014292882 C 147.49332753929733,154.55642554844758 150.2323134070136,155.5760076579435 152.92188159041945,156.71925119691852 C 155.5385628091411,158.0202868313705 158.0528898597826,159.50911936118695 160.43045381877135,161.20747351217162 C 162.63547226624107,163.12432061384496 164.63654007016106,165.2534258117289 166.5,167.5" fill="none" stroke="yellow" stroke-width="2" /><line x1="-990.8293461799622" y1="114.84582" x2="1209.1693425178528" y2="114.84582" stroke="red" stroke-dasharray="5,5" stroke-width="1" /><polygon points="13.244999885559082,227.7550048828125 4.755471229553223,104.1456069946289 2.5006909370422363,50.77862548828125 1.5,1.5" fill="none" stroke="yellow" stroke-width="2" /><polygon points="224.64700317382812,215.67999267578125 198.6738739013672,220.58615112304688 169.50950622558594,224.93649291992188 92.23332214355469,233.30914306640625 70.30072784423828,233.10302734375 13.244999885559082,227.7550048828125" fill="none" stroke="yellow" stroke-width="2" /><polygon points="216.77699279785156,2.1070001125335693 220.53408813476562,22.766386032104492 223.482421875,44.53171157836914 225.60707092285156,67.39788818359375 226.95718383789062,92.35447692871094 227.28488159179688,144.47491455078125 224.64700317382812,215.67999267578125" fill="none" stroke="yellow" stroke-width="2" /><line x1="-990.8293461799622" y1="108.54538" x2="1209.1693425178528" y2="108.54538" stroke="red" stroke-dasharray="5,5" stroke-width="1" /><line x1="-890.8294057846069" y1="0.9181591346859932" x2="1109.1694021224976" y2="3.064840905368328" stroke="yellow" stroke-width="2" /></svg>