<svg xmlns="http://www.w3.org/2000/svg" version="1.1" viewBox="-12.581180876837646 -12.351406638128084 287.8670384925155 277.45487455419624"><path d="M 109.14299774169923,125.5800018310547 C 113.46201570908171,125.17209003212314 117.77051192992734,124.66423261755394 122.07245044443596,124.10318259802948 C 126.37345093131725,123.5349398405026 130.67935941732122,123.00543941431079 134.99484484542506,122.56141168105822 C 139.3218679988489,122.25089958584064 143.65797460815926,122.1232247718989 147.99449279310227,122.22783698317639 C 152.31502511623364,122.61167871457525 156.59507388422406,123.31450417001258 160.809747950096,124.33910928634639 C 164.9379315110153,125.67022937218499 168.96085772506964,127.2920430439092 172.8616976799595,129.18888879776196 C 176.62509055860608,131.34567579900641 180.23659941684318,133.74818578596077 183.68225706700036,136.3830673375415 C 186.9480584917001,139.2378386235938 190.02276006562948,142.29754812989628 192.90125839734267,145.5425774126395 C 195.57885469713088,148.95531562382192 198.05232348244516,152.51881990654027 200.31950038128394,156.21703478982252 C 202.37895826681645,160.03485503084448 204.22957808513647,163.95818520238376 205.870325781477,167.9738309288049 C 207.30001003507635,172.06938654957517 208.50807169411345,176.2355942492652 209.450419372905,180.46955218966497 C 210.06727929874933,184.7626614972856 210.29241070193592,189.0935489964205 210.05840297159165,193.4234239383853 C 209.3128903689187,197.69475277304116 208.08463837638303,201.85358458506 206.44362852792804,205.86800847220312 C 204.45703512358617,209.72355115992897 202.18351111682193,213.4175043744237 199.67256855329046,216.95458535336718 C 196.95034829102892,220.33182149107245 194.03521944146064,223.5440944004577 190.94547587111316,226.58886355324063 C 187.6987572129742,229.46573530545345 184.31163977744654,232.17597796950434 180.79937487837515,234.72202192689485 C 177.1758500113826,237.1071280290899 173.45353084718195,239.3349701935087 169.64352694982819,241.40934953782997 C 165.75570412071406,243.33398231055074 161.79884496438223,245.1124156476189 157.77938155698237,246.74436434101847 C 153.69608065777817,248.20904665754267 149.54832407143397,249.47944140142286 145.33871150129778,250.52630907280093 C 141.0740449917789,251.31891077561505 136.76625105994412,251.82608541668793 132.43310821082355,252.01860253004475 C 128.09767212394598,251.88680947266238 123.783934863129,251.43390547473513 119.51554570935174,250.66300226563447 C 115.31623199091877,249.57714332778062 111.21003861992489,248.17986214124033 107.21673508856806,246.48646582971224 C 103.34959193005794,244.52175030560926 99.61785113586798,242.31045933839025 96.027359608609,239.8763728009478 C 92.5813884674751,237.24154836139797 89.2814321181243,234.4259095452426 86.12798212527379,231.4470344319557 C 83.12560152384904,228.3159754728673 80.2909655807956,225.03238089127817 77.64749711950446,221.59313364218502 C 75.22190063383383,217.9970439951944 73.04391553427888,214.24595825399086 71.14547265193899,210.3460924107968 C 69.55913434153723,206.30934863558355 68.31050619257478,202.15575033409007 67.40181775149813,197.91471237703544 C 66.8257673068828,193.6157525370119 66.5707844508526,189.28577895371663 66.62255457574949,184.94852472215192 C 66.96544091222808,180.62445486740984 67.58359197218358,176.33101247139817 68.46175439928709,172.08306002015013 C 69.58578947866229,167.89340276959217 70.94300461690156,163.77333335416222 72.52231387962249,159.73315748942682 C 74.31430083495754,155.78269274733887 76.311183769291,151.93172971673786 78.52533215435753,148.20179023246155 C 80.99056247632097,144.63290497412942 83.70250203321928,141.24776282903127 86.65693166378507,138.07217349776607 C 89.84978042869977,135.1365888541267 93.275338817178,132.47649665849912 96.92411031680024,130.13228880255872 C 100.78018240030391,128.14794110118171 104.81867713995396,126.56821009857325 109.00399780273438,125.43399810791016" fill="none" stroke="yellow" stroke-width="2" /><line x1="-12.581180876837646" y1="185.3258" x2="275.28585761567786" y2="185.3258" stroke="red" stroke-dasharray="5,5" stroke-width="1" /><path d="M 140.84300231933588,11.85200023651123 C 145.1060389530301,15.447424004099291 149.72599135756434,18.575522887443835 154.54132500566567,21.395399550464912 C 159.46824238080927,24.016228276578673 164.45674190950942,26.518207658808546 169.47163874074673,28.966983468969943 C 174.48258579563884,31.42381042080659 179.45631299551533,33.954921160980476 184.34638725781718,36.64347476995923 C 189.07087792620507,39.60012532190504 193.00066634753912,37.46581140467708 196.62580954140785,33.22513888043609 C 200.1959344748373,28.93564108828177 203.75489152492236,24.636858899514397 207.3633163095815,20.37962408575976 C 211.087229551455,16.22329219513348 214.97919536449933,12.224181605720272 219.06376435443158,8.422152384610849 C 223.3368856116882,4.833579766421888 227.8632742309453,1.2951426327794673 227.73556700193916,6.407245362495195 C 227.1411221844208,11.956504083174812 226.28800920833055,17.471179083096438 225.1475760908884,22.93357757089121 C 223.71376879697092,28.32642263851121 222.00877230524506,33.639903212193744 220.07806731957064,38.8757901243223 C 217.97748722083608,44.04603686471642 215.76344145006152,49.16636980979975 215.9138477670825,53.0924704792196 C 221.20898558913026,54.825918635576876 226.37790056448927,56.928150958983785 231.4427394120023,59.27120224316512 C 236.44536789789066,61.74482203077553 241.4313106010619,64.25203073181164 246.4467908232321,66.69938403949592 C 251.53673401182664,68.98713196779865 256.7410561599486,70.99954623948784 262.20099222965445,72.571899313477 C 257.789970551603,75.61041555129661 252.70815553985219,77.90272492340425 247.34243749693647,79.42247299858356 C 241.83513753720163,80.31212464417297 236.27375675944685,80.76790092087597 230.69738549843052,80.98732060523483 C 225.1189508357513,81.15077807443576 219.5449720442827,81.42222826922799 213.9900667021929,81.95305260121144 C 209.57283609581523,83.98232267530118 208.51472736950768,89.45233625896935 207.64299682051188,94.96449111023055 C 206.91089425713037,100.4969794068443 206.3004558004319,106.04423255456051 205.80387929441576,111.60284209050327 C 205.42082026579652,117.17042145556681 205.158065370602,122.74495547006951 205.03121897073254,128.32419485738154 C 205.06961798517148,133.90465755495106 205.27101239522153,139.3207891986742 202.019548941481,134.66109257968282 C 198.95718532244842,129.99574661903952 196.04294960514537,125.2364879258058 193.27986853730886,120.3879232563494 C 190.67775409608186,115.4511374924259 188.2534799004713,110.42469597686011 186.03255876758882,105.30525687180327 C 184.05230105061753,100.08817917911128 182.36731974927037,94.76869897336213 181.04967097261732,89.35543856176614 C 176.75567084168168,87.68152066512761 171.1796543918107,87.8589942000651 165.63068986708296,88.4439980550881 C 160.1326031640717,89.3964458478706 154.6962513822941,90.65563308758378 149.31894318635213,92.14795174507587 C 143.9870203674646,93.79571768425825 138.68048121277474,95.52378248050015 133.37779314453618,97.26346249599683 C 127.95133068555413,99.03631178338294 130.1750028871347,95.08166916491666 133.54262887308838,90.6318561297878 C 137.15378079086332,86.37773974744712 140.99657266780423,82.33164161157806 145.0589015319354,78.50601369304826 C 149.32861922741557,74.91332805496428 153.79331766607817,71.56615122907064 158.1182734951051,68.11828084646342 C 161.75442330549492,63.911155715318976 165.6718485842279,59.936881670161085 166.01949707578393,54.88223778463451 C 164.08640761812543,49.65153314004768 161.50269730904498,44.708528801185565 158.4076422755258,40.06674861427451 C 155.00805979919542,35.64139541226112 151.52961604443325,31.277230500708015 148.19267623946604,26.80478735566917 C 145.20184651603483,22.09535472629187 142.72193715776615,17.09907597502007 140.843994140625,11.847000122070312" fill="none" stroke="yellow" stroke-width="2" /><path d="M 7.980000019073492,0.8399999737739566 C 12.389093775000958,0.8824718942802606 16.79793735922965,0.9457955165085314 21.20643225839879,1.0299642288753077 C 25.61448004221317,1.1349708913915815 30.021982340307233,1.260808769262646 34.428840855954235,1.4074706741974752 C 38.834957350482824,1.5749494531609392 43.24023363096526,1.763238088409766 47.64457154985842,1.9723295090793582 C 52.047873013662006,2.202216326353745 56.45003996659688,2.4528911220799303 60.850974377354525,2.7243465622525282 C 65.25057820986922,3.0165756830657253 69.64875352449764,3.3295703261845113 74.0454023419183,3.663323120192813 C 78.4404266395361,4.017827245172608 82.83372857438343,4.393073638101974 87.2252100373714,4.7890563346482615 C 91.61477323560044,5.205765668170795 96.00232005186608,5.643195303317075 100.38775249926049,6.101337639539642 C 104.77096695594395,6.580181274850047 109.146133528565,7.076635872709368 111.47155026104176,10.016901148626383 C 111.22869335974903,14.410427273449727 110.99033375803602,18.81326187048557 110.75199222927603,23.216117719421472 C 110.51365458632883,27.618973739264927 110.27531990512237,32.0218299191096 110.03700121073057,36.42468696435364 C 109.79868113654862,40.82754393490974 109.56035969777538,45.230400831603625 109.32204496812763,49.63325809142542 C 109.08373743464219,54.03611574074204 108.84542097986998,58.43897290718783 108.60710920324719,62.84183032684105 C 108.3687930426469,67.24468750920599 108.13048225135927,71.64754498218848 107.89216057417772,76.05040186595643 C 107.65383800189622,80.45325870127158 107.41551467006474,84.85611549547527 107.17718321459643,89.25897184996698 C 106.93884118049334,93.6618276317866 106.70049537383156,98.06468320938134 106.46213907539189,102.46753821898835 C 106.2237774268717,106.87039293974507 105.98540134504681,111.27324771491554 105.74705262670874,115.67626482582065 C 103.86137693192366,119.30738999526524 99.45325797057949,119.9934597993626 95.07078031135714,120.47831488885757 C 90.67926177381943,120.87314625678724 86.28079711220715,121.18117087920096 81.87727679938865,121.40572737417169 C 77.47039930999537,121.55027009416887 73.06167223468803,121.61832136086132 68.65241795770315,121.61345451206874 C 64.24378030766307,121.53929022243904 59.836733041337396,121.39944083433721 55.432088377007524,121.19753979359173 C 51.03050850874202,120.93718152283097 46.632513581736966,120.62196238038753 42.238494900246174,120.25542344067543 C 37.84872122762653,119.84109986512667 33.46335345430185,119.38245986577645 29.082449478916516,118.88295647998677 C 24.705977958444464,118.34598313037638 20.333822358238688,117.77491665917496 15.965792795236354,117.17308975777732 C 11.601633356744511,116.54380769559562 7.241377838780999,115.89055791197062 2.9429053087931214,114.86582355206983 C 2.013335711410715,110.64075293969509 1.8350860494144499,106.23358001716355 1.6676692584428139,101.82745136152069 C 1.5067025020441676,97.42108843958168 1.34819042815536,93.01463639564928 1.1932585312399808,88.60805724580922 C 1.0454180178859607,84.20123492653671 0.9081717434176118,79.79407060310473 0.7850221760108737,75.38649073384052 C 0.6794769517094639,70.97845527937343 0.5950516870468463,66.56996608207223 0.5352738348835192,62.161075348072046 C 0.503684509185787,57.75189433272484 0.503839887637633,53.342602185986976 0.5393116274271366,48.93345498176404 C 0.613685344726687,44.52479489406792 0.7305585308676896,40.11705946221669 0.8935357802634124,35.71079085748766 C 1.1062234771194954,31.30664508309983 1.3722210819976368,26.905400860958597 1.6951114820038398,22.507968136302775 C 2.0784488007220463,18.115395918418837 2.5257430638498137,13.72887911422523 3.0404423616187732,9.349761902811192 C 3.625718532551816,4.979179197275401 4.346512569471967,0.7334587478953475 8.699999809265137,1.4170000553131104" fill="none" stroke="yellow" stroke-width="2" /><line x1="55.023697" y1="-12.351406638128084" x2="55.023697" y2="265.10346791606815" stroke="red" stroke-dasharray="5,5" stroke-width="1" /></svg>