<svg xmlns="http://www.w3.org/2000/svg" version="1.1" viewBox="-10.792352153055466 -11.352598049505765 264.6786650108288 188.72351677964028"><path d="M 40.832000732421875,126.12999725341797 C 45.66426642859931,126.03905231468315 51.78739873400439,125.61035918917135 58.93832881279618,124.78092910539482 C 66.61311418454754,123.58756965313573 74.30771873011743,122.1336121174941 82.54870190400895,120.33355049552847 C 91.71766559663956,118.07309158542124 101.07294549235392,115.51505295739535 110.17547866279936,112.79772571418287 C 119.75503675683292,109.70551977269884 130.02106020843598,106.13423839670394 139.70400807357996,102.51852298310537 C 148.54082888260686,98.99579719115282 157.31070556144283,95.27050613603188 166.03482282653934,91.31291095026218 C 173.91748965618993,87.48827629245147 180.94312656812048,83.8408122347322 187.72630864818296,80.0556179182328 C 194.1216305964948,76.18156132162426 199.54569231958897,72.57629072893722 204.11273713832168,69.20421294862008 C 203.50683476271644,63.584565256149205 200.99099017535673,55.6883373804602 197.44892007346553,47.71915944898084 C 193.00167790725035,40.09805158475562 184.33121520581895,29.101705756727064 172.71173764790908,18.71548250046001 C 159.20930372141254,10.403129933739281 144.12677961108582,4.444129211118998 127.76702641896193,1.117964215946101 C 110.87872502570119,0.6782503600773631 95.09391890514598,2.9559114016470414 80.35350799560538,7.6694650650024725 C 66.91260653600214,14.583138620670777 55.02633555510544,23.461159421532674 44.94980371485984,34.067755111291305 C 36.938128294287125,46.167151764155875 31.246425041983027,59.52358152849831 28.12980322000481,73.90126521204853 C 27.945363807599175,90.20185262084298 30.19787989384236,102.73349426615692 32.8008826471228,110.69807492881873 C 36.497578459580694,118.83625878033483 39.4003494969019,126.1747866601886 29.153358619818334,124.68738217791368 C 23.490203848340798,120.86273075129729 23.66358595178795,114.9690415776386 29.04510731217937,108.01469937131122 C 11.906692722045754,110.19059866589696 2.185942003789222,122.19090785451739 1.2384962565276632,132.02996070026882 C 8.635324677252674,138.2405704497525 23.0374700197488,141.09659622102794 43.31271575012596,140.70242481523982 C 57.348262991750794,144.36993167652676 70.37170416501611,153.31656497268267 85.06999351790078,159.98235350143318 C 101.13829283140805,164.08418468931757 118.18886410842663,165.3400703205514 134.31637638363074,163.7593512945666 C 149.45453031541336,159.64699065197206 163.3446806185516,153.24332046506086 175.72697817540708,144.78866180714752 C 186.34154562066487,134.52332794780318 194.92852365033607,122.68760256840699 201.22804260253906,109.5218200683592 C 204.9802573483166,95.2662967547664 205.94243455807015,85.7475308118987 224.3891581822365,73.0879342883089 C 236.66569386241724,61.31904892058029 241.85546444819022,51.050276915359625 239.02657174835227,42.92918852255492 C 228.25593783423676,38.08731278992315 210.7213892177887,36.68628365601413 199.55504504062048,46.25682363500932 C 209.1759751361281,47.506042776549414 214.90725875794774,50.93912626418069 215.50813479921368,56.200099094873785 C 211.54302127195842,62.4378059647445 203.61079678630412,87.1154994550474 197.02349944730625,90.92980245759432 C 190.30192190734385,94.56640563858996 183.53989083469713,98.0281276320748 176.12542427872708,101.62518448164728 C 168.07167647396093,105.32403264483995 160.0920921043736,108.79490905387473 152.13682900659376,112.07726073223397 C 143.4884304571956,115.45750615947742 134.32427273432228,118.83882663841763 125.48984777194539,121.91171994220062 C 116.97108769193396,124.70132861461225 108.07457637376692,127.43097090067904 99.17598766250258,129.97085192558143 C 90.97995664491134,132.13515714414117 83.10457235824688,134.0482906247036 74.96525388199171,135.84380700344607 C 67.03502480365671,137.40268494744993 59.86790968531906,138.63291171514584 27.67266845703125,97.9107894897461" fill="none" stroke="yellow" stroke-width="2" /></svg>