<svg xmlns="http://www.w3.org/2000/svg" version="1.1" viewBox="-11.46249445813505 -11.362370080021003 265.47739841329434 188.7459682638757"><path d="M 205.97999572753906,82.9229965209961 C 196.62133319450572,91.15347695723716 179.55777821661053,99.9837024553616 160.5226331893205,108.61177043806701 C 139.81583778805688,116.83747232501814 118.115382170343,124.33547389175622 97.08995438218881,130.53718998140369 C 77.21568650636381,135.36773727671488 58.85179947585732,138.7949321498718 46.95658162315014,134.1995382312886 C 38.1374592958598,126.06163438966315 28.705595063526292,124.54918821807775 23.594067570420776,121.05663263316677 C 23.36456680634027,115.70628632235079 27.945982627651066,109.05155565867854 29.3388836213139,99.19672975399772 C 18.89488873765645,104.26504782345029 9.528630195322595,112.50327198503139 3.3319184014522336,120.14383019540139 C 0.6046600151965134,126.98649750755592 1.6392252182495997,132.81572985917018 6.406916090854603,137.18444935077076 C 14.547784092294947,139.98271780157611 25.702676294754447,141.242741286573 39.51243495118295,140.9967340201406 C 55.61990616013061,142.9085834989714 67.99367008585212,151.92748657812274 81.99299722192958,158.83756335305216 C 97.60996987605537,163.43574060047865 114.37759025852004,165.31644371052315 131.21896679962617,164.27303916737822 C 147.04870283457214,160.48176259864147 161.5944193747271,154.2072758238371 174.5701446533204,145.71374511718744 C 185.90474152471518,135.02351990933562 195.26850946874538,122.11978048062956 201.89764973527414,107.64737233448973 C 205.45470843126353,91.918338410149 215.74750668059707,79.43876639311333 227.05313112541057,70.91432108951632 C 235.38834767825512,62.85448468391888 240.45318804385738,55.45946563267036 241.94774948182774,48.92946895778496 C 240.11920789787735,44.12859843242965 234.6087567543623,40.09442792522961 225.80104453145984,37.62390623238992 C 214.05518557565117,36.684826116868315 199.7303654055066,37.2449732038458 185.35477288076535,38.94087091965863 C 167.1616026342972,42.225868260140814 147.42220293732044,46.9175203439591 126.49572384160787,52.98356675278708 C 104.80224659073896,60.3698015309038 83.94482032348414,68.54430172107926 64.72909926895885,77.14123406047901 C 47.45500452295134,85.960359148439 32.4225462128151,94.80034382957275 27.639623686083162,85.40397481671859 C 28.78977729554594,69.42701925666515 33.11836480995603,54.31599483108047 40.31209408334145,40.48925371307906 C 50.05375489004582,28.23998574288134 61.975094143208636,17.89828823290778 75.32904589892638,9.928133657170694 C 90.1785417970608,4.2313712916098405 106.2396418159582,1.0707125600024328 123.1273651123049,0.704784393310559 C 139.45915294236045,3.1856221678714625 154.64948578909798,8.272242412987373 168.41364248739302,15.701396229721214 C 180.46683545566563,25.209826523815636 191.22541185259425,37.51282505509584 201.12374933875273,46.285561735903016 C 210.36425726889559,47.886397861426566 215.2573087458201,51.474350754221845 215.2505487601157,56.89702440973249 C 210.45458025515234,63.6049447510438 205.24783021957617,72.29413795268985 203.6080879842394,69.71480853573577 C 200.11287072203663,53.45835035195101 188.90320197129753,46.534861706822795 172.91010341081608,48.591509456242335 C 154.32861812723195,52.41775983579909 133.75558036508568,57.93981451375002 111.78798902435176,65.08381584733795 C 90.21971090954229,73.30745356197029 70.76103421811995,81.9156517543092 53.92292066920896,90.5915086690762 C 40.21644431202758,99.0180715616661 32.29240444126612,109.39512163961528 38.74818343396231,122.86268500947419 C 52.274786660347736,125.56529781653585 68.73897426379027,123.20972066926741 87.69246492274021,119.09679307357169 C 108.53839630409189,113.30031944069741 127.81655733935588,106.92125508949368 149.36050111388482,98.65668918921136 C 168.7205716318927,90.03937457343939 185.43885420829878,81.3675626446961 199.00428771972656,72.95819854736328" fill="none" stroke="yellow" stroke-width="2" /></svg>