<svg xmlns="http://www.w3.org/2000/svg" version="1.1" viewBox="-7.524502461153348 -7.51223199269675 162.9179200057209 187.62038747821202"><path d="M 145.62399291992188,120.87000274658203 C 144.3366150970631,118.2147012870013 141.82391838798912,115.51058668956162 138.29677485429647,113.2311722632696 C 133.83461190041814,111.38245027594648 128.5168081227023,109.97041085979914 122.422787052932,109.00106937181262 C 115.63194521268008,108.48040520030986 108.22368992257947,108.4144131515995 100.27742305486883,108.80910901688158 C 91.87254147894383,109.67045760787127 83.09297542353137,111.09965634366382 75.30666815518686,112.53136717289492 C 66.02931010183893,114.75928258457594 56.760488273084846,117.43107242275342 47.96941422613201,120.40935172561278 C 39.72491088101275,123.64803330165482 34.19220397349356,126.12507562832921 27.036333037718798,129.68290751941498 C 20.61014576530865,133.3985555768318 14.976172283858501,137.20518529489027 10.200532201743277,141.05723891292058 C 6.349345747809021,144.90919670072105 3.4887310419593995,148.7154850753026 1.6848083449326037,152.43058702896465 C 1.0036969696744724,156.00894888093876 1.5103633276105928,159.40170004325216 3.180147883313909,162.4312971824791 C 5.926129356349162,165.04114400955578 9.668826554427515,167.22496716696983 14.328834253172765,168.9767476314546 C 19.82674971711691,170.29050979167772 26.0831666903291,171.16024536245743 33.01868438720707,171.57995605468747 C 40.55389621073056,171.54364442311845 48.609397922931116,171.04532849618488 57.10578796279275,170.07899687396915 C 65.96365937589705,168.63865386020856 75.10360290358476,166.71829906290574 84.44973834226684,164.31080126542085 C 93.55369873852494,161.5214601383972 102.15307793863619,158.44296502584058 110.1818672312174,155.1208315745573 C 117.57396094966576,151.60059855526848 124.26321893423263,147.92780109130462 130.18353335343187,144.14800057075826 C 135.26879682916183,140.30674933227667 139.45286622891464,136.449567804071 142.66963154598716,132.62201002092516 C 144.85298300004933,128.86962169818108 145.93674743625093,125.23792768191343 146.86521811373973,122.18778253646069 C 90.10261684533255,92.08817701091743 92.64379221103013,85.1801456368604 95.02648135629356,78.21569690671697 C 97.28129094791791,70.9485282876112 99.09152110718358,63.46497873217884 100.34918865109204,55.84644300368952 C 100.91979844008853,48.06283533312866 100.52510053716941,40.27780196243589 99.51286237373371,34.894035708938446 C 96.93001621088767,27.91746435257035 93.06910249860307,21.4955626710449 88.31387258615032,15.851122972018278 C 82.9374421735688,11.060522846556847 76.93019812439786,7.116746242996395 70.25533294677724,4.021543502807587 C 62.92807634759468,1.8887683382729332 55.35211341721543,1.0159674381310713 47.654469655733294,1.4714522023277992 C 40.40029809977671,3.157106774871202 33.641822833016136,6.053886025304569 27.414281025084804,10.158744954595951 C 22.13876365814461,15.118029168004595 17.848608626299537,20.818317008842573 14.517632757230484,27.20520750976322 C 12.129864287238656,34.25585789473607 10.895554346166032,41.6106590781522 10.634949098029043,49.03696239250273 C 11.03240962280958,56.56817450668516 12.004558130998587,64.24359045697888 13.443980538996144,71.99785879251367 C 15.224272779343673,79.81724137804827 17.304713963063673,87.16345761209388 19.64050081199924,94.09426692825696 C 22.297086387951033,100.8909191824218 25.27505973124452,107.55367361850553 28.574716015630372,114.08226134513954 C 32.664286597765035,121.15819375940393 39.380076819300555,131.14851981763275 44.03206881214603,137.22265625478826 C 49.674499933064624,142.3572884498005 56.16780004904203,143.97763558272882 62.64841150914003,141.1864369569611 C 67.8928722475789,135.5317558285426 72.06800258374345,129.06501264988583 75.86777770081586,122.12951853623294 C 79.3572104412178,115.09437144553054 84.69501130814899,104.63782008640307 87.68990325927734,98.03278350830078" fill="none" stroke="yellow" stroke-width="2" /><path d="M 46.374000549316406,25.110000610351562 C 46.41780902677712,25.081053553857863 46.10956800656216,25.285304794518282 44.952252658097485,26.09139154016849 C 43.97099181298378,26.864783842139197 43.028286530219354,27.690988450374633 42.151677086837076,28.552573579888218 C 41.33792758246456,29.451301555534073 40.58731240953025,30.386745682715855 39.90025217612781,31.35839336916907 C 39.27696093659878,32.36585295658556 38.71772003173828,33.4087028503418 38.22278861725812,34.48651544724521 C 37.792441090409454,35.598878349665625 37.42694172045163,36.74534941573095 37.126555495935385,37.925588630583704 C 36.89155802902494,39.13894193019277 36.72221888315795,40.38497620893869 36.61859507351003,41.66876798171025 C 36.58304037217771,42.93691181940108 36.6212362368916,44.11992462025766 36.731599649407485,45.290538993056835 C 36.91238784790039,46.43540954589844 37.16180465714882,47.554033322709714 37.47805579595971,48.643948915260786 C 37.85935173458967,49.702802907688934 38.30390174412962,50.728296195127136 38.809911515789054,51.71810329472966 C 39.37559357967352,52.669908401760814 39.999153533434594,53.58138553409165 40.67879993416833,54.45022402188427 C 41.412747549291126,55.274097399787365 42.19919560186311,56.05068944215651 43.03636169433594,56.77768325805663 C 43.92245003297184,57.45275234110078 44.85566314367662,58.07358605597978 45.83424313459573,58.63786201852244 C 46.85626616630448,59.143244587907425 47.92031299467583,59.587469152098116 49.0246181854089,59.96822520790466 C 50.15860115071104,60.28183101719679 51.40297361743961,60.53818286732293 52.77839640653467,60.71773941764472 C 54.09449218446737,60.77649099880879 55.37862014770508,60.7256965637207 56.62732164773306,60.56911688221623 C 57.841861823457464,60.31166807015833 59.02321021849578,59.9581860555645 60.1722371786756,59.51348806105383 C 61.28985597569547,58.982404182821284 62.37697794807537,58.36975961633541 63.43459934377338,57.68027810924694 C 64.46283515130203,56.91952740099839 65.46665073581066,56.08860578713005 66.41536141665974,55.22110644149028 C 67.30227661132812,54.32621383666992 68.13185699367828,53.40029513474334 68.90348466791082,52.44417629963849 C 69.61680992052375,51.458443668328705 70.2715878167257,50.443584177384004 70.86753696692179,49.40013386357596 C 71.40437101529984,48.328608086296235 71.88181767938208,47.229533123332196 72.29959288748763,46.10343043278897 C 72.65743163797903,44.9508167535679 72.9550381152199,43.77225222376921 73.19214630126952,42.56818771362305 C 73.36846486340099,41.338814596453176 73.48374283238073,40.08881119250404 73.53761158329267,38.79349706277669 C 73.53039304472269,37.63294817998897 73.46264194356802,36.554634074863095 73.33348541867291,35.47305467239103 C 73.14180219541657,34.401675816141385 72.88650253811863,33.34449163156506 72.5664875935117,32.305115464957424 C 72.18066939074704,31.287707015389977 71.72795104980472,30.296249389648455 71.20723617040122,29.33476698033135 C 70.61742375698665,28.407274343748636 69.95743412949211,27.51778849380242 69.22615314153586,26.670328839697085 C 68.42249954944955,25.86890968174584 67.54538476925417,25.11755141568221 66.59364973142388,24.420259202356977 C 65.56656775152068,23.781116532043004 64.46127484842138,23.203817808484086 63.283016975841534,22.693537177800913 C 62.019386291503906,22.252229690551758 60.608217172477495,21.87343224052209 58.08152029291078,21.640711544761444 C 56.77786642012345,21.687535400415722 56.00617561223003,21.769989018200576 54.63667169980978,21.968258186869146 C 53.361528939050196,22.22292935408316 52.10528677877062,22.543484496462458 50.870032691559224,22.932448898441926 C 49.66095172275515,23.392073740006165 48.47876488432256,23.92500851573353 47.32564926147461,24.53377342224121" fill="none" stroke="yellow" stroke-width="2" /></svg>