<svg xmlns="http://www.w3.org/2000/svg" version="1.1" viewBox="-7.48128144055358 -7.338296261768396 162.57332299191296 187.2596942098916"><path d="M 146.281005859375,121.36000061035156 C 146.58023726909158,123.90165285940218 145.94483396217854,127.5677792944296 144.15288427741197,131.36473526565334 C 141.27423243726452,135.2455478140833 137.37871786238983,139.1633334496656 132.5362161783822,143.07120474984916 C 126.81656701077836,146.92223568231276 120.2896434957719,150.66953949731143 113.02528082656416,154.2662197716209 C 105.09334464483997,157.66537944003397 96.56369441192132,160.82010733988272 87.5061769200237,163.6835053946402 C 78.00799741043531,166.20438029888328 68.54317408468869,168.2518654111274 59.361408683414055,169.78806386892052 C 50.54648247000211,170.82103490202468 42.1821447808645,171.3588566496708 34.35214371533837,171.4095936658554 C 27.140232029133617,170.9813407503877 20.63015760935122,170.08214850216174 14.90567103370041,168.72008763174762 C 10.050519661383202,166.90326359653062 6.148455434801284,164.6397288843747 3.2832263039468152,161.93754624761007 C 1.53829365010722,158.80348230568205 1.0305228417142194,154.75794937861158 2.2154641060737155,150.3016982579327 C 5.030729081933534,145.6837016132615 9.354811914754922,140.98526205177166 15.06620394096558,136.28765368106104 C 22.043396768181744,131.67218605417816 30.165449930608723,127.2200961504256 36.172233581542976,125.92178344726562 C 38.97311018132739,129.96461047253072 41.115992477380544,132.91314991224104 43.454609023682416,135.98614890969 C 46.272138620356664,139.17161206400598 48.830676286555565,141.47681205667766 52.40979243742132,143.4408430297747 C 55.59716255763243,143.99433748389947 58.84331034952947,143.55034406855873 62.479326851335514,141.6608834823889 C 65.09099922711343,139.36490317090914 67.91500238883451,136.10842156965143 70.11593716921362,132.96687164015108 C 72.07458863828404,129.8187473908973 74.32012731714381,125.9034462513794 75.9724486934699,122.80402567868558 C 77.91802226451927,118.95120675526739 79.69307040393664,115.33236102496906 81.99883882729165,110.46520088023486 C 85.5916326061294,103.72552546183968 88.64351537476065,96.8378810334513 91.4008935967261,89.84147771570775 C 93.93819131893987,82.76437698641601 96.33847990035534,75.59826425098643 98.50053119338766,68.04111068849186 C 100.1311381795942,60.34767078052611 101.14821291028443,52.47764548451614 101.32788543603635,44.51800120214644 C 100.56893741151814,37.61368093896229 98.84595155557848,31.35079299267176 95.52691980152188,24.512636475139917 C 91.0212148958195,18.3300069337813 85.81996558042232,13.054494681283256 79.95842742919913,8.654586791992143 C 73.44100049313033,5.148542092843254 66.14315597633166,2.5428048306396582 58.49879008652194,1.1735080204994037 C 50.606483812937654,1.180212449385206 43.04131220913981,2.5070370563410114 35.98382848906398,5.096695206577447 C 29.46495006996737,8.95153023192869 23.788488703764017,13.834118217665647 19.17293863203541,19.484752806802344 C 15.564664019165775,25.86415396379746 12.932049868367507,32.94024035995834 11.469037688903166,40.43738184056442 C 11.076157269046954,48.0136267545491 11.408025568239399,55.67475366182677 12.34167590033669,63.52193280165053 C 13.778441082018626,71.42481834250057 15.574024214235212,79.41633386853002 17.69048111265036,86.95309715161221 C 20.07008716687005,94.03534629366943 22.784386007050816,100.97755610954715 25.834021748358847,107.78006349552635 C 29.218955097147653,114.44225484401554 34.2466676814068,121.4354046346063 91.67857559595807,109.12058061013099 C 100.98455212608062,108.23470040735458 109.71871918048502,107.92033683865027 117.77960019680675,108.16653079901073 C 125.06240418062754,108.9631851371285 131.4623380757247,110.3002094187367 136.8745850837079,112.16749783315468 C 141.1943570113212,114.55495920385361 144.3168572691974,117.45249355910366 146.13726806640625,120.85001373291016" fill="none" stroke="yellow" stroke-width="2" /><path d="M 46.82500076293945,25.110000610351562 C 46.868809186689354,25.081053553857863 46.56056806131892,25.285304794518282 45.403252896118715,26.09139154016849 C 44.4219920225357,26.864783842139197 43.479286744167545,27.690988450374633 42.60267730052526,28.552573579888218 C 41.78892779605168,29.451301555534073 41.038312623163336,30.386745682715855 40.35125238974886,31.35839336916907 C 39.727961150222086,32.36585295658556 39.16872024536133,33.4087028503418 38.67378883088116,34.48651544724521 C 38.2434413040325,35.598878349665625 37.87794193407468,36.74534941573095 37.577555709558425,37.925588630583704 C 37.34255824264798,39.13894193019277 37.173219096781004,40.38497620893869 37.06959528713308,41.66876798171025 C 37.03404058580076,42.93691181940108 37.07223645051464,44.11992462025766 37.18259986303053,45.290538993056835 C 37.36338806152344,46.43540954589844 37.61280487077186,47.554033322709714 37.929056009582766,48.643948915260786 C 38.31035194821271,49.702802907688934 38.754901957752665,50.728296195127136 39.2609117294121,51.71810329472966 C 39.82659379329657,52.669908401760814 40.45015374705764,53.58138553409165 41.12980014779137,54.45022402188427 C 41.863747762914166,55.274097399787365 42.65019581548615,56.05068944215651 43.487361907958984,56.77768325805663 C 44.37345024659489,57.45275234110078 45.306663357299676,58.07358605597978 46.285243348218785,58.63786201852244 C 47.30726637992753,59.143244587907425 48.37131320829886,59.587469152098116 49.475618399031895,59.96822520790466 C 50.609601364334594,60.28183101719679 51.8539738310596,60.53818286732293 53.22939662017076,60.71773941764472 C 54.5454923980534,60.77649099880879 55.829620361328125,60.7256965637207 57.07832186224645,60.56911688221623 C 58.29286203019631,60.31166807015833 59.47421046650549,59.9581860555645 60.62323726915299,59.51348806105383 C 61.740856412658545,58.982404182821284 62.82797434683228,58.36975961633541 63.88560094766857,57.68027810924694 C 64.91383950971853,56.91952740099839 65.91765443068493,56.08860578713005 66.86636624702828,55.22110644149028 C 67.75327301025389,54.32621383666992 68.58286170892376,53.40029513474334 69.35448921901306,52.44417629963849 C 70.06780877166376,51.458443668328705 70.72259033769042,50.443584177384004 71.31853401684911,49.40013386357596 C 71.85536742773371,48.328608086296235 72.33281566935864,47.229533123332196 72.75059871929305,46.10343043278897 C 73.1084293546125,44.9508167535679 73.40604158878807,43.77225222376921 73.64314270019531,42.56818771362305 C 73.8194686232871,41.338814596453176 73.93473805267163,40.08881119250404 73.98860853792743,38.79349706277669 C 73.98138835231876,37.63294817998897 73.91364597767968,36.554634074863095 73.78448201923116,35.47305467239103 C 73.59280497756352,34.401675816141385 73.33750123618715,33.34449163156506 73.01749251609576,32.305115464957424 C 72.6316730904578,31.287707015389977 72.17895507812503,30.296249389648455 71.65823334245394,29.33476698033135 C 71.0684263729653,28.407274343748636 70.4084288348955,27.51778849380242 69.67715524615492,26.670328839697085 C 68.87350416238378,25.86890968174584 67.99638127729632,25.11755141568221 67.04465530488343,24.420259202356977 C 66.01756728983243,23.781116532043004 64.91227614528798,23.203817808484086 63.734018109386355,22.693537177800913 C 62.47038650512695,22.252229690551758 61.059217359031564,21.87343224052209 58.53252043017808,21.640711544761444 C 57.22886651532195,21.687535400415722 56.45717584165454,21.769989018200576 55.08767191328289,21.968258186869146 C 53.81252915821631,22.22292935408316 52.55628691983976,22.543484496462458 51.32103334082338,22.932448898441926 C 50.111949099488584,23.392073740006165 48.92976413882219,23.92500851573353 47.776649475097656,24.53377342224121" fill="none" stroke="yellow" stroke-width="2" /></svg>